<?xml version="1.0" standalone="no"?>
<!DOCTYPE svg PUBLIC "-//W3C//DTD SVG 1.1//EN" "http://www.w3.org/Graphics/SVG/1.1/DTD/svg11.dtd" >
<svg>
<metadata>
Created by FontForge 20090914 at Wed Feb  4 08:09:15 2015
 By www-data
Copyright (c) 1989, 1990 Adobe Systems Incorporated.  All Rights Reserved.Trade Gothic is a trademark of Linotype AG and/or its subsidiaries.
</metadata>
<defs>
<font id="TradeGothicNo.20-CondBold" horiz-adv-x="444" >
  <font-face 
    font-family="TradeGothicNo.20-Condensed"
    font-weight="700"
    font-stretch="expanded"
    units-per-em="1000"
    panose-1="2 11 8 0 0 0 0 0 0 0"
    ascent="800"
    descent="-200"
    x-height="538"
    cap-height="722"
    bbox="-52.0029 -236.001 1000 964"
    underline-thickness="50"
    underline-position="-50"
    unicode-range="U+0020-U+2122"
  />
<missing-glyph horiz-adv-x="502" 
d="M-1 0h500v500h-500v-500zM9 10v480h480v-480h-480z" />
    <glyph glyph-name=".notdef" horiz-adv-x="502" 
d="M-1 0h500v500h-500v-500zM9 10v480h480v-480h-480z" />
    <glyph glyph-name="space" unicode=" " horiz-adv-x="222" 
 />
    <glyph glyph-name="exclam" unicode="!" horiz-adv-x="278" 
d="M98 212h82l22 510h-126zM198 0v118h-118v-118h118z" />
    <glyph glyph-name="quotedbl" unicode="&#x22;" horiz-adv-x="333" 
d="M40 448h94v274h-94v-274zM199 448h94v274h-94v-274z" />
    <glyph glyph-name="numbersign" unicode="#" 
d="M408 292h-62l16 138h72v78h-64l25 214h-89l-25 -214h-81l25 214h-89l-25 -214h-76v-78h66l-15 -138h-76v-78h66l-25 -214h91l24 214h81l-25 -214h90l24 214h72v78zM272 430l-16 -138h-80l16 138h80z" />
    <glyph glyph-name="dollar" unicode="$" 
d="M192 722c-47.333 -6 -84.5029 -26.334 -111.503 -61.001s-40.5 -76 -40.5 -124c0 -44 13.833 -82.333 41.5 -115s64.5 -63 110.5 -91v-235c-18.667 5.33301 -34.667 15.333 -48 30s-23.666 31.334 -30.999 50.001l-83 -63c19.333 -30.667 43 -56.334 71 -77.001
s58.333 -32.667 91 -36v-116h60v116c50.667 4.66699 90.334 25.167 119.001 61.5s43 80.5 43 132.5c0 26.667 -4.16699 50.834 -12.5 72.501s-19.833 41.167 -34.5 58.5s-31.167 33 -49.5 47s-40.166 29 -65.499 45v207c14 -3.33301 25.5 -9.83301 34.5 -19.5
s18.5 -22.5 28.5 -38.5l76 65c-16.667 23.333 -37 43 -61 59s-50 26.667 -78 32v88h-60v-88zM191.997 449.999c-16.667 15.333 -29.167 30.666 -37.5 45.999s-12.5 33.333 -12.5 54c0 17.333 4.5 32.833 13.5 46.5s21.167 22.834 36.5 27.501v-174zM251.997 292.999
c19.333 -17.333 33.5 -33.332 42.5 -47.999s13.5 -33.334 13.5 -56.001c0 -47.333 -18.667 -78.333 -56 -93v197z" />
    <glyph glyph-name="percent" unicode="%" horiz-adv-x="778" 
d="M50 558c0 -22.667 4.16699 -43.834 12.5 -63.501s20.166 -37.167 35.499 -52.5s32.833 -27.166 52.5 -35.499s40.834 -12.5 63.501 -12.5s44 4.16699 64 12.5s37.5 20.166 52.5 35.499s26.667 32.833 35 52.5s12.5 40.834 12.5 63.501s-4.16699 44 -12.5 64
s-20 37.5 -35 52.5s-32.5 26.667 -52.5 35s-41.333 12.5 -64 12.5s-43.834 -4.16699 -63.501 -12.5s-37.167 -20 -52.5 -35s-27.166 -32.5 -35.499 -52.5s-12.5 -41.333 -12.5 -64zM130 558c0 22.667 8.33301 42.334 25 59.001s36.334 25 59.001 25
s42.334 -8.33301 59.001 -25s25 -36.334 25 -59.001s-8.33301 -42.334 -25 -59.001s-36.334 -25 -59.001 -25s-42.334 8.33301 -59.001 25s-25 36.334 -25 59.001zM480 164c0 22.667 8.33301 42.334 25 59.001s36.334 25 59.001 25s42.334 -8.33301 59.001 -25
s25 -36.334 25 -59.001s-8.33301 -42.334 -25 -59.001s-36.334 -25 -59.001 -25s-42.334 8.33301 -59.001 25s-25 36.334 -25 59.001zM400 164c0 -22.667 4.16699 -43.834 12.5 -63.501s20.166 -37.167 35.499 -52.5s32.833 -27.166 52.5 -35.499s40.834 -12.5 63.501 -12.5
s44 4.16699 64 12.5s37.5 20.166 52.5 35.499s26.667 32.833 35 52.5s12.5 40.834 12.5 63.501s-4.16699 44 -12.5 64s-20 37.5 -35 52.5s-32.5 26.667 -52.5 35s-41.333 12.5 -64 12.5s-43.834 -4.16699 -63.501 -12.5s-37.167 -20 -52.5 -35s-27.166 -32.5 -35.499 -52.5
s-12.5 -41.333 -12.5 -64zM557 732l-409 -742h75l409 742h-75z" />
    <glyph glyph-name="ampersand" unicode="&#x26;" horiz-adv-x="556" 
d="M192 589c0 47.333 16.335 70.999 49.002 70.999c15.333 0 26.666 -6.16699 33.999 -18.5s11 -32.166 11 -59.499c0 -22.667 -5.33301 -44.167 -16 -64.5s-25.334 -42.833 -44.001 -67.5c-10 25.333 -18.167 49.5 -24.5 72.5s-9.5 45.167 -9.5 66.5zM404.002 349.999
c-6.66699 -30.667 -21.3389 -75.333 -44.0059 -134c-34 43.333 -64 92.333 -90 147l13 14c36.667 40 64.334 75 83.001 105s28 63.333 28 100c0 45.333 -13.167 81.666 -39.5 108.999s-62.166 41 -107.499 41c-50 0 -88.667 -15.667 -116 -47s-41 -72.333 -41 -123
c0 -28 5.33301 -59 16 -93s24.334 -69.333 41.001 -106c-27.333 -30 -50 -62.667 -68 -98s-27 -70.666 -27 -105.999c0 -50 15.833 -90.667 47.5 -122s73.5 -47 125.5 -47c30.667 0 56.834 4.33301 78.501 13s42.834 22.667 63.501 42
c38.667 -36 85.334 -54.333 140.001 -55v110c-25.333 4 -48.333 15.333 -69 34l10 24c15.333 35.333 27.5 65.333 36.5 90s16.167 49.667 21.5 75zM165.997 175c0 18 2.16602 32.833 6.49902 44.5s12.5 26.5 24.5 44.5c22 -44 55 -92.333 99 -145
c-9.33301 -8 -18.166 -13.5 -26.499 -16.5s-18.5 -4.5 -30.5 -4.5c-21.333 0 -38.833 7.5 -52.5 22.5s-20.5 33.167 -20.5 54.5z" />
    <glyph glyph-name="quotesingle" unicode="'" horiz-adv-x="222" 
d="M64 448h94v274h-94v-274z" />
    <glyph glyph-name="parenleft" unicode="(" horiz-adv-x="278" 
d="M150 732c-36.667 -58 -65.5 -122.5 -86.5 -193.5s-31.5 -142.833 -31.5 -215.5s10.5 -144.5 31.5 -215.5s49.833 -135.5 86.5 -193.5h96c-38 58.667 -67.167 123 -87.5 193s-30.5 142 -30.5 216s10.167 146 30.5 216s49.5 134.333 87.5 193h-96z" />
    <glyph glyph-name="parenright" unicode=")" horiz-adv-x="278" 
d="M32 732c38 -58.667 67.167 -123 87.5 -193s30.5 -142 30.5 -216s-10.167 -146 -30.5 -216s-49.5 -134.333 -87.5 -193h96c37.333 58 66.333 122.5 87 193.5s31 142.833 31 215.5s-10.333 144.5 -31 215.5s-49.667 135.5 -87 193.5h-96z" />
    <glyph glyph-name="asterisk" unicode="*" 
d="M372 645c-40 -24 -82.3369 -46.333 -127.004 -67c3.33301 42.667 11.333 90.667 24 144h-94c12.667 -53.333 20.667 -101.333 24 -144c-44.667 20.667 -87 43 -127 67l-30 -89c24.667 -0.666992 60.334 -4.33398 107.001 -11.001l44 -6
c-42.667 -46 -79.667 -81.667 -111 -107l79 -55c8.66699 24.667 24.334 61 47.001 109c6 14 10.667 24.333 14 31c3.33301 -6.66699 8 -17 14 -31c22.667 -48 38.334 -84.333 47.001 -109l79 55c-31.333 25.333 -68.333 61 -111 107l44 6
c46.667 6.66699 82.334 10.334 107.001 11.001z" />
    <glyph glyph-name="plus" unicode="+" horiz-adv-x="600" 
d="M251 302h-204v-98h204v-204h98v204h204v98h-204v204h-98v-204z" />
    <glyph glyph-name="comma" unicode="," horiz-adv-x="222" 
d="M170 118h-118v-118h45l-49 -124h53l69 124v118z" />
    <glyph glyph-name="hyphen" unicode="-" horiz-adv-x="333" 
d="M289 223v92h-245v-92h245z" />
    <glyph glyph-name="period" unicode="." horiz-adv-x="222" 
d="M170 0v118h-118v-118h118z" />
    <glyph glyph-name="slash" unicode="/" horiz-adv-x="278" 
d="M-21 -10h98l222 742h-98z" />
    <glyph glyph-name="zero" unicode="0" 
d="M280 157c0 -46 -19.333 -69 -58 -69s-58 23 -58 69v408c0 46 19.333 69 58 69s58 -23 58 -69v-408zM46 188c0 -68.667 14 -118.834 42 -150.501s72.667 -47.5 134 -47.5s106 15.833 134 47.5s42 81.834 42 150.501v346c0 68.667 -14 118.834 -42 150.501
s-72.667 47.5 -134 47.5s-106 -15.833 -134 -47.5s-42 -81.834 -42 -150.501v-346z" />
    <glyph glyph-name="one" unicode="1" 
d="M177 0h112v732h-63c-35.333 -30 -84.333 -61 -147 -93v-67h98v-572z" />
    <glyph glyph-name="two" unicode="2" 
d="M389 0v101.997h-219c48.667 68.667 88 126.334 118 173.001s53.167 86.834 69.5 120.501s27.5 64 33.5 91s9 55.5 9 85.5c0 43.333 -15.667 80.833 -47 112.5s-71.666 47.5 -120.999 47.5c-56.667 0 -101.5 -17.667 -134.5 -53s-49.5 -80.333 -49.5 -135v-34h118v49
c0 22.667 5.16699 40.834 15.5 54.501s25.166 20.5 44.499 20.5c18 0 31.833 -6.66699 41.5 -20s14.5 -34 14.5 -62c0 -48.667 -17 -103.5 -51 -164.5s-96.333 -157.833 -187 -290.5v-97h345z" />
    <glyph glyph-name="three" unicode="3" 
d="M46 209l0.000976562 -43.001c0 -60 14.167 -104.333 42.5 -133s69.166 -43 122.499 -43c61.333 0 106.666 17.333 135.999 52s44 88 44 160c0 50.667 -6 88.5 -18 113.5s-35.667 46.833 -71 65.5c30.667 16.667 51.334 37.334 62.001 62.001s16 59.334 16 104.001
c0 51.333 -14.167 95 -42.5 131s-67.833 54 -118.5 54c-52.667 0 -94 -15.5 -124 -46.5s-45 -71.5 -45 -121.5v-34h112v30c0 27.333 4.66699 46.5 14 57.5s23.333 16.5 42 16.5c18 0 30.833 -7.33301 38.5 -22s11.5 -39.334 11.5 -74.001c0 -42 -7.5 -70.833 -22.5 -86.5
s-41.167 -23.5 -78.5 -23.5v-98c38.667 0 66 -7.5 82 -22.5s24 -41.5 24 -79.5v-55c0 -28.667 -5.16699 -50 -15.5 -64s-24.833 -21 -43.5 -21c-37.333 0 -56 24 -56 72v49h-112z" />
    <glyph glyph-name="four" unicode="4" 
d="M111 266l121 282h2v-282h-123zM232 0h114v174h66v92h-66v456h-120l-210 -456v-92h216v-174z" />
    <glyph glyph-name="five" unicode="5" 
d="M50 209l0.00292969 -55c0 -56.667 16.167 -98.167 48.5 -124.5s75.5 -39.5 129.5 -39.5c59.333 0 102.166 18 128.499 54s39.5 92.667 39.5 170v100c0 62.667 -10.5 110 -31.5 142s-54.5 48 -100.5 48c-21.333 0 -38.833 -2.66699 -52.5 -8
s-27.834 -16.666 -42.501 -33.999l-2 2l7 156h195l4 102h-301c0 -61.333 -0.5 -113.5 -1.5 -156.5s-2.83301 -93.833 -5.5 -152.5c-0.666992 -24 -1.33398 -44.667 -2.00098 -62h96c6 17.333 14.333 30.833 25 40.5s24.667 14.5 42 14.5c15.333 0 27.833 -5.5 37.5 -16.5
s14.5 -27.5 14.5 -49.5v-164c0 -31.333 -5.16699 -53.833 -15.5 -67.5s-25.5 -20.5 -45.5 -20.5c-16.667 0 -30 5.66699 -40 17s-15 26.666 -15 45.999v58h-112z" />
    <glyph glyph-name="six" unicode="6" 
d="M383 528l-0.00195312 44.002c0 46.667 -14.667 85 -44 115s-68.333 45 -117 45c-61.333 0 -106 -15.833 -134 -47.5s-42 -81.834 -42 -150.501v-346c0 -68.667 14 -118.834 42 -150.501s72.667 -47.5 134 -47.5c62 0 106.833 17.5 134.5 52.5s41.5 90.833 41.5 167.5v86
c0 50 -12.167 87.167 -36.5 111.5s-56.166 36.5 -95.499 36.5c-23.333 0 -41.666 -3.5 -54.999 -10.5s-29 -19.5 -47 -37.5v169c0 46 19.333 69 58 69c35.333 0 53 -23 53 -69v-37h108zM163.998 313.002c11.333 9.33301 22.5 17.168 33.5 23.501s21.167 9.5 30.5 9.5
c16 0 28.667 -5.83301 38 -17.5s14 -28.834 14 -51.501v-120c0 -46 -19.333 -69 -58 -69s-58 23 -58 69v156z" />
    <glyph glyph-name="seven" unicode="7" 
d="M263 620l-145 -620h117l147 652v70h-326v-102h207z" />
    <glyph glyph-name="eight" unicode="8" 
d="M46 200c0 -68 14.833 -120 44.5 -156s73.5 -54 131.5 -54s101.833 18 131.5 54s44.5 88 44.5 156c0 47.333 -5.16699 85.333 -15.5 114s-30.166 52.334 -59.499 71.001c21.333 15.333 37.5 35.833 48.5 61.5s16.5 53.167 16.5 82.5c0 68 -14.5 118.833 -43.5 152.5
s-69.833 50.5 -122.5 50.5s-93.5 -16.833 -122.5 -50.5s-43.5 -84.5 -43.5 -152.5c0 -29.333 5.5 -56.833 16.5 -82.5s27.167 -46.167 48.5 -61.5c-28.667 -18.667 -48.334 -42.334 -59.001 -71.001s-16 -66.667 -16 -114zM222 88c-22.667 0 -39 10.167 -49 30.5
s-15 50.166 -15 89.499s5 69.166 15 89.499s26.333 30.5 49 30.5c23.333 0 39.833 -10.167 49.5 -30.5s14.5 -50.166 14.5 -89.499s-4.83301 -69.166 -14.5 -89.499s-26.167 -30.5 -49.5 -30.5zM222 436c-18.667 0 -32.334 7.83301 -41.001 23.5s-13 40.834 -13 75.501
c0 35.333 4.33301 60.666 13 75.999s22.334 23 41.001 23s32.334 -7.66699 41.001 -23s13 -40.666 13 -75.999c0 -34.667 -4.33301 -59.834 -13 -75.501s-22.334 -23.5 -41.001 -23.5z" />
    <glyph glyph-name="nine" unicode="9" 
d="M61 194v-44.002c0 -46 14.667 -84.167 44 -114.5s68.333 -45.5 117 -45.5c61.333 0 106 15.833 134 47.5s42 81.834 42 150.501v346c0 68.667 -14 118.834 -42 150.501s-72.667 47.5 -134 47.5s-106 -17.5 -134 -52.5s-42 -90.833 -42 -167.5v-86
c0 -50 12.333 -87.167 37 -111.5s56.334 -36.5 95.001 -36.5c23.333 0 41.666 3.5 54.999 10.5s29 19.5 47 37.5v-169c0 -46 -19.333 -69 -58 -69c-35.333 0 -53 23 -53 69v37h-108zM280 408.998c-11.333 -9.33301 -22.333 -17.168 -33 -23.501s-21 -9.5 -31 -9.5
c-16 0 -28.667 5.83301 -38 17.5s-14 28.834 -14 51.501v120c0 46 19.333 69 58 69s58 -23 58 -69v-156z" />
    <glyph glyph-name="colon" unicode=":" horiz-adv-x="222" 
d="M170 0v118h-118v-118h118zM170 278v118h-118v-118h118z" />
    <glyph glyph-name="semicolon" unicode=";" horiz-adv-x="222" 
d="M170 118h-118v-118h45l-49 -124h53l69 124v118zM170 278v118h-118v-118h118z" />
    <glyph glyph-name="less" unicode="&#x3c;" horiz-adv-x="600" 
d="M553 104l-365 149l365 149v104l-506 -211v-84l506 -211v104z" />
    <glyph glyph-name="equal" unicode="=" horiz-adv-x="600" 
d="M553 406h-506v-98h506v98zM553 198h-506v-98h506v98z" />
    <glyph glyph-name="greater" unicode="&#x3e;" horiz-adv-x="600" 
d="M47 0l506 211v84l-506 211v-104l365 -149l-365 -149v-104z" />
    <glyph glyph-name="question" unicode="?" horiz-adv-x="389" 
d="M233 212v54.001c0 39.333 5.33301 71.833 16 97.5s26 52.167 46 79.5l6 8c18.667 26 32.667 49.333 42 70s14 46.334 14 77.001c0 38 -14.333 69.833 -43 95.5s-62.334 38.5 -101.001 38.5c-46.667 0 -84.5 -10.833 -113.5 -32.5s-51.5 -54.834 -67.5 -99.501l96 -36
c5.33301 21.333 13.833 39.333 25.5 54s26.834 22 45.501 22c12 0 22 -4.33301 30 -13s12 -19.334 12 -32.001c0 -14 -3.5 -29 -10.5 -45s-17.167 -36.333 -30.5 -61l-11 -20c-16 -30 -28.667 -58.5 -38 -85.5s-14 -56.167 -14 -87.5v-84h96zM242 0.000976562v118h-118v-118
h118z" />
    <glyph glyph-name="at" unicode="@" horiz-adv-x="800" 
d="M369 233c-23.333 0 -42.166 8.49902 -56.499 25.499s-21.5 38.167 -21.5 63.5c0 16.667 3 33.834 9 51.501s14.667 33.834 26 48.501s24.666 26.5 39.999 35.5s31.666 13.5 48.999 13.5c22.667 0 41.167 -8.33301 55.5 -25s21.5 -37.334 21.5 -62.001
c0 -16.667 -3 -34 -9 -52s-14.5 -34.5 -25.5 -49.5s-24.167 -27 -39.5 -36s-31.666 -13.5 -48.999 -13.5zM523 495.999c-26.667 43.333 -65.666 64.998 -116.999 64.998c-31.333 0 -60.333 -7 -87 -21s-49.5 -33 -68.5 -57s-33.667 -51.167 -44 -81.5
s-15.5 -61.166 -15.5 -92.499c0 -22 4 -43.167 12 -63.5s19.167 -38.166 33.5 -53.499s31 -27.333 50 -36s38.833 -13 59.5 -13c19.333 0 38.5 5.16699 57.5 15.5s35.833 23.5 50.5 39.5l2 -1c0.666992 -17.333 6.33398 -30.666 17.001 -39.999s24 -14 40 -14
c20 0 44 5.66699 72 17s55.333 28.666 82 51.999s48.834 53.333 66.501 90s26.5 79 26.5 127c0 44 -9.16699 84.833 -27.5 122.5s-43.833 70 -76.5 97s-69.667 47.667 -111 62s-84.333 21.5 -129 21.5c-51.333 0 -99.833 -9.16699 -145.5 -27.5
s-85.834 -44.166 -120.501 -77.499s-61.667 -72.833 -81 -118.5s-29 -94.834 -29 -147.501c0 -54.667 9.66699 -104.834 29 -150.501s46.5 -85 81.5 -118s75.667 -58.333 122 -76s95.833 -26.5 148.5 -26.5c62 0 119.333 14 172 42s96 67.667 130 119h-83
c-26.667 -26.667 -58.5 -47.167 -95.5 -61.5s-76.167 -21.5 -117.5 -21.5c-42.667 0 -82.167 7 -118.5 21s-67.833 34.167 -94.5 60.5s-47.334 57.333 -62.001 93s-22 74.5 -22 116.5s6.83301 81 20.5 117s33 67.333 58 94s55.167 47.334 90.5 62.001s74 22 116 22
c38 0 73.167 -5.33301 105.5 -16s60.166 -26.334 83.499 -47.001c52 -44.667 78 -105.667 78 -183c0 -26 -3.33301 -50 -10 -72s-15.667 -41.5 -27 -58.5s-23.833 -30 -37.5 -39s-27.5 -13.5 -41.5 -13.5c-6 0 -10.167 2.33301 -12.5 7s-3.5 11.334 -3.5 20.001
c0 8 2 19.667 6 35c0.666992 2 1 3.33301 1 4l63 257h-81z" />
    <glyph glyph-name="A" unicode="A" 
d="M221 578h2l49 -310h-100zM154 160h136l22 -160h120l-133 722h-154l-133 -722h120z" />
    <glyph glyph-name="B" unicode="B" horiz-adv-x="500" 
d="M184 324l39.999 -0.000976562c36.667 0 62.834 -9 78.501 -27s23.5 -46 23.5 -84c0 -37.333 -7 -65.166 -21 -83.499s-37 -27.5 -69 -27.5h-52v222zM183.999 619.999h47c54 0 81 -34 81 -102c0 -29.333 -7.66699 -52 -23 -68s-35.333 -24 -60 -24h-45v194z
M59.999 -0.000976562h195.999c66.667 0 115.667 18.833 147 56.5s47 88.5 47 152.5c0 44.667 -8.5 80.667 -25.5 108s-41.833 48.333 -74.5 63c28.667 11.333 50.167 31 64.5 59s21.5 58.667 21.5 92c0 62.667 -15.667 110.167 -47 142.5s-79.666 48.5 -144.999 48.5h-184
v-722z" />
    <glyph glyph-name="C" unicode="C" horiz-adv-x="500" 
d="M434 481l0.000976562 53.002c0 57.333 -15.833 104.666 -47.5 141.999s-77.167 56 -136.5 56c-62 0 -109.167 -17.333 -141.5 -52s-48.5 -79 -48.5 -133v-372c0 -54 16.167 -98.333 48.5 -133s79.5 -52 141.5 -52c59.333 0 104.833 17.333 136.5 52s47.5 79 47.5 133v83
h-124v-87c0 -24.667 -4.5 -43 -13.5 -55s-24.5 -18 -46.5 -18c-24 0 -41 6.33301 -51 19s-15 33 -15 61v366c0 28 5 48.333 15 61s27 19 51 19c17.333 0 31.666 -7.33301 42.999 -22s17 -36.334 17 -65.001v-56h124z" />
    <glyph glyph-name="D" unicode="D" horiz-adv-x="500" 
d="M184 620h43c33.333 0 56.5 -7.33301 69.5 -22s19.5 -41 19.5 -79v-316c0 -38 -6.5 -64.333 -19.5 -79s-36.167 -22 -69.5 -22h-43v518zM60 0h184c64.667 0 113.5 18 146.5 54s49.5 90.667 49.5 164v286c0 73.333 -16.5 128 -49.5 164s-81.833 54 -146.5 54h-184v-722z
" />
    <glyph glyph-name="E" unicode="E" 
d="M406 0v108h-222v212h160v108h-160v186h208v108h-332v-722h346z" />
    <glyph glyph-name="F" unicode="F" 
d="M184 0v320h166v108h-166v186h222v108h-346v-722h124z" />
    <glyph glyph-name="G" unicode="G" horiz-adv-x="500" 
d="M231 268l78.999 0.000976562v-70c0 -36 -5.16699 -61.667 -15.5 -77s-27.833 -23 -52.5 -23c-20.667 0 -35.5 6.66699 -44.5 20s-13.5 32 -13.5 56v371c0 28.667 5 49 15 61s23.333 18 40 18c25.333 0 43.5 -9.66699 54.5 -29s16.5 -55 16.5 -107h118v46
c0 57.333 -16.167 104.666 -48.5 141.999s-78.166 56 -137.499 56c-58.667 0 -103.667 -17.333 -135 -52s-47 -79 -47 -133v-372c0 -56.667 15.167 -101.667 45.5 -135s70.5 -50 120.5 -50c28 0 51 4.83301 69 14.5s36.667 26.167 56 49.5l23 -54h60v366h-203v-98z" />
    <glyph glyph-name="H" unicode="H" horiz-adv-x="500" 
d="M184 0v320h132v-320h124v722h-124v-294h-132v294h-124v-722h124z" />
    <glyph glyph-name="I" unicode="I" horiz-adv-x="278" 
d="M201 0v722h-124v-722h124z" />
    <glyph glyph-name="J" unicode="J" horiz-adv-x="278" 
d="M3 -10l40.999 0.000976562c64.667 0 109.834 13.167 135.501 39.5s38.5 64.5 38.5 114.5v578h-124v-564c0 -20.667 -5 -35.834 -15 -45.501s-26.667 -14.5 -50 -14.5h-26v-108z" />
    <glyph glyph-name="K" unicode="K" 
d="M178 0v256l44 80h2l101 -336h126l-151 453l134 269h-124l-130 -267h-2v267h-124v-722h124z" />
    <glyph glyph-name="L" unicode="L" horiz-adv-x="389" 
d="M373 0v108h-195v614h-124v-722h319z" />
    <glyph glyph-name="M" unicode="M" horiz-adv-x="611" 
d="M394 722l-88 -422h-2l-88 422h-163v-722h108v564h2l112 -564h60l112 564h2v-564h108v722h-163z" />
    <glyph glyph-name="N" unicode="N" horiz-adv-x="500" 
d="M172 0v451h2l158 -451h108v722h-112v-413h-2l-151 413h-115v-722h112z" />
    <glyph glyph-name="O" unicode="O" horiz-adv-x="500" 
d="M60 175c0 -54 16.167 -98.333 48.5 -133s79.5 -52 141.5 -52s109.167 17.333 141.5 52s48.5 79 48.5 133v372c0 54 -16.167 98.333 -48.5 133s-79.5 52 -141.5 52s-109.167 -17.333 -141.5 -52s-48.5 -79 -48.5 -133v-372zM184 544c0 28 5 48.333 15 61s27 19 51 19
c24.667 0 41.834 -6.33301 51.501 -19s14.5 -33 14.5 -61v-366c0 -28 -4.83301 -48.333 -14.5 -61s-26.834 -19 -51.501 -19c-24 0 -41 6.33301 -51 19s-15 33 -15 61v366z" />
    <glyph glyph-name="P" unicode="P" horiz-adv-x="500" 
d="M184 620l48 0.00195312c40.667 0 68.5 -7.83301 83.5 -23.5s22.5 -44.834 22.5 -87.501s-7.5 -71.834 -22.5 -87.501s-42.833 -23.5 -83.5 -23.5h-48v222zM184 0.00195312v296h54c77.333 0 134 16.5 170 49.5s54 87.5 54 163.5s-18 130.5 -54 163.5
s-92.667 49.5 -170 49.5h-178v-722h124z" />
    <glyph glyph-name="Q" unicode="Q" horiz-adv-x="500" 
d="M477 54c-8.66699 0.666992 -17.332 2.83203 -25.999 6.49902s-19.334 10.834 -32.001 21.501c14 27.333 21 58.333 21 93v372c0 54 -16.167 98.333 -48.5 133s-79.5 52 -141.5 52s-109.167 -17.333 -141.5 -52s-48.5 -79 -48.5 -133v-372c0 -54 16.167 -98.333 48.5 -133
s79.5 -52 141.5 -52c40 0 73.667 7.66699 101 23c20 -27.333 39.5 -45.333 58.5 -54s41.5 -13 67.5 -13v108zM259.002 147.998c0.666992 0 1.33301 -0.333008 2 -1c5.33301 -4.66699 10.333 -9.5 15 -14.5s10 -12.833 16 -23.5c-9.33301 -7.33301 -23.333 -11 -42 -11
c-24 0 -41 6.33301 -51 19s-15 33 -15 61v366c0 28 5 48.333 15 61s27 19 51 19c24.667 0 41.834 -6.33301 51.501 -19s14.5 -33 14.5 -61v-330c-10 11.333 -19.167 20 -27.5 26s-17.5 11.667 -27.5 17c-0.666992 0 -1.33398 0.333008 -2.00098 1v-110z" />
    <glyph glyph-name="R" unicode="R" horiz-adv-x="500" 
d="M184 620l44 0.000976562c34 0 57.833 -7.83301 71.5 -23.5s20.5 -44.834 20.5 -87.501c0 -42 -6.83301 -71 -20.5 -87s-37.5 -24 -71.5 -24h-44v222zM184 296.001c10.667 0 22.168 0.332031 34.501 0.999023s22.166 1.33398 29.499 2.00098l88 -299h126l-105 327
c25.333 11.333 46.166 31.333 62.499 60s24.5 69.334 24.5 122.001c0 75.333 -17.167 129.666 -51.5 162.999s-87.166 50 -158.499 50h-174v-722h124v296z" />
    <glyph glyph-name="S" unicode="S" 
d="M404 557c-5.33301 52.667 -23 95.001 -53 127.001s-69.667 48 -119 48c-60.667 0 -107.834 -15.667 -141.501 -47s-50.5 -75.666 -50.5 -132.999c0 -26.667 4 -51.334 12 -74.001s18.667 -42.834 32 -60.501s27.333 -33.5 42 -47.5s33.667 -31 57 -51
c37.333 -30.667 64.833 -56.834 82.5 -78.501s26.5 -47.167 26.5 -76.5c0 -21.333 -6.5 -37.666 -19.5 -48.999s-30.5 -17 -52.5 -17c-20.667 0 -37.5 9.33301 -50.5 28s-20.833 45.667 -23.5 81l-118 -17c2.66699 -56.667 20.5 -104.167 53.5 -142.5
s77.167 -57.5 132.5 -57.5c59.333 0 106.833 16.333 142.5 49s53.5 78 53.5 136c0 26 -4.16699 50.167 -12.5 72.5s-19.5 42.833 -33.5 61.5s-28.5 35.167 -43.5 49.5s-34.5 31.5 -58.5 51.5c-35.333 30.667 -61.5 56.167 -78.5 76.5s-25.5 42.5 -25.5 66.5
c0 47.333 20.667 71 62 71c16.667 0 31.334 -6.16699 44.001 -18.5s20 -32.833 22 -61.5z" />
    <glyph glyph-name="T" unicode="T" horiz-adv-x="389" 
d="M132 0h124v614h120v108h-364v-108h120v-614z" />
    <glyph glyph-name="U" unicode="U" horiz-adv-x="500" 
d="M60 182c0 -61.333 16.833 -108.666 50.5 -141.999s80.167 -50 139.5 -50s105.833 16.667 139.5 50s50.5 80.666 50.5 141.999v540h-124v-545c0 -52.667 -22 -79 -66 -79s-66 26.333 -66 79v545h-124v-540z" />
    <glyph glyph-name="V" unicode="V" 
d="M223 221h-2l-90 501h-122l151 -722h124l151 722h-122z" />
    <glyph glyph-name="W" unicode="W" horiz-adv-x="667" 
d="M194 262h-2l-76 460h-116l137 -722h104l84 477h2l90 -477h104l127 722h-116l-69 -460h-2l-84 460h-102z" />
    <glyph glyph-name="X" unicode="X" 
d="M14 0h122l86 263h2l84 -263h122l-140 378l125 344h-122l-69 -229h-2l-76 229h-122l132 -344z" />
    <glyph glyph-name="Y" unicode="Y" 
d="M284 300l150 422h-126l-83 -275h-2l-87 275h-126l150 -422v-300h124v300z" />
    <glyph glyph-name="Z" unicode="Z" 
d="M275 614l-231 -496v-118h356v108h-228l228 496v118h-328v-108h203z" />
    <glyph glyph-name="bracketleft" unicode="[" horiz-adv-x="278" 
d="M250 722h-214v-798h214v48h-118v702h118v48z" />
    <glyph glyph-name="backslash" unicode="\" horiz-adv-x="278" 
d="M77 732h-98l222 -742h98z" />
    <glyph glyph-name="bracketright" unicode="]" horiz-adv-x="278" 
d="M28 674h118v-702h-118v-48h214v798h-214v-48z" />
    <glyph glyph-name="asciicircum" unicode="^" horiz-adv-x="600" 
d="M163 302l136 302l136 -302h109l-190 420h-108l-190 -420h107z" />
    <glyph glyph-name="underscore" unicode="_" horiz-adv-x="500" 
d="M500 -125v50h-500v-50h500z" />
    <glyph glyph-name="grave" unicode="`" horiz-adv-x="222" 
d="M99 602h83l-79 144h-135z" />
    <glyph glyph-name="a" unicode="a" 
d="M154 380c1.33301 25.333 6.33203 44.333 14.999 57s25 19 49 19c36.667 0 55 -23 55 -69v-32c-83.333 -31.333 -144 -65.5 -182 -102.5s-57 -84.167 -57 -141.5c0 -36 9.83301 -65.167 29.5 -87.5s47.834 -33.5 84.501 -33.5c26 0 48.667 4.16699 68 12.5
s40.333 21.5 63 39.5c0.666992 -4.66699 1.66699 -11 3 -19c2 -10 3 -17.667 3 -23h107l-1 5c-4 24.667 -6 42 -6 52v345c0 48.667 -14 85.167 -42 109.5s-68.333 36.5 -121 36.5c-53.333 0 -96 -14.5 -128 -43.5s-49.333 -70.5 -52 -124.5h112zM272.999 132
c-10.667 -15.333 -22.167 -27.5 -34.5 -36.5s-25.833 -13.5 -40.5 -13.5c-34.667 0 -52 16.333 -52 49c0 24.667 8.83301 47.5 26.5 68.5s51.167 45.5 100.5 73.5v-141z" />
    <glyph glyph-name="b" unicode="b" 
d="M160 0v55.999h2c19.333 -24.667 37.5 -41.834 54.5 -51.501s38.833 -14.5 65.5 -14.5c35.333 0 63.166 12.833 83.499 38.5s30.5 62.834 30.5 111.501v258c0 48.667 -10.167 85.834 -30.5 111.501s-48.166 38.5 -83.499 38.5c-22 0 -40.167 -3.83301 -54.5 -11.5
s-33.5 -21.5 -57.5 -41.5l-4 -3v230h-112v-722h106zM166 427.999c26 18.667 47.333 28.002 64 28.002s29.834 -6.33301 39.501 -19s14.5 -35.334 14.5 -68.001v-200c0 -32.667 -4.83301 -55.334 -14.5 -68.001s-22.834 -19 -39.501 -19s-38 9.33301 -64 28v318z" />
    <glyph glyph-name="c" unicode="c" 
d="M396 354c-1.33301 61.333 -15.668 109 -43.001 143s-71 51 -131 51c-60.667 0 -104.834 -17.667 -132.501 -53s-41.5 -84.333 -41.5 -147v-158c0 -62.667 13.833 -111.667 41.5 -147s71.834 -53 132.501 -53s104.834 17.667 132.501 53s41.5 84.333 41.5 147v14h-112v-34
c0 -30.667 -5.16699 -53 -15.5 -67s-25.833 -21 -46.5 -21s-36.167 7 -46.5 21s-15.5 36.333 -15.5 67v198c0 30.667 5.16699 53 15.5 67s25.833 21 46.5 21s36.167 -7 46.5 -21s15.5 -36.333 15.5 -67v-14h112z" />
    <glyph glyph-name="d" unicode="d" 
d="M390 0v722.001h-112v-230l-4 3c-24.667 20 -44 33.833 -58 41.5s-32 11.5 -54 11.5c-35.333 0 -63.166 -12.833 -83.499 -38.5s-30.5 -62.834 -30.5 -111.501v-258c0 -48.667 10.167 -85.834 30.5 -111.501s48.166 -38.5 83.499 -38.5c26.667 0 48.5 4.83301 65.5 14.5
s35.167 26.834 54.5 51.501h2v-56h106zM278 110.001c-25.333 -18.667 -46.666 -28.002 -63.999 -28.002c-16.667 0 -29.834 6.33301 -39.501 19s-14.5 35.334 -14.5 68.001v200c0 32.667 4.83301 55.334 14.5 68.001s22.834 19 39.501 19
c17.333 0 38.666 -9.33301 63.999 -28v-318z" />
    <glyph glyph-name="e" unicode="e" 
d="M160 340v28c0 30.667 5.16699 53 15.5 67s25.833 21 46.5 21s36.167 -7 46.5 -21s15.5 -36.333 15.5 -67v-28h-124zM396 348c0 62.667 -13.8311 111.666 -41.498 146.999s-71.834 53 -132.501 53s-104.834 -17.667 -132.501 -53s-41.5 -84.333 -41.5 -147v-158
c0 -62.667 13.833 -111.667 41.5 -147s71.834 -53 132.501 -53c60 0 103.667 16.833 131 50.5s41.666 80.834 42.999 141.501h-112v-12c0 -30.667 -5.16699 -53 -15.5 -67s-25.833 -21 -46.5 -21s-36.167 7 -46.5 21s-15.5 36.333 -15.5 67v78h236v100z" />
    <glyph glyph-name="f" unicode="f" horiz-adv-x="278" 
d="M76 0l112 0.000976562v446h64v92h-64v66c0 13.333 2.83301 22.666 8.5 27.999s15.167 8 28.5 8h32v92h-56c-40 0 -70.833 -10.5 -92.5 -31.5s-32.5 -52.833 -32.5 -95.5v-67h-66v-92h66v-446z" />
    <glyph glyph-name="g" unicode="g" 
d="M426 548c-22.667 0 -39.667 -3.83105 -51 -11.498s-25 -23.167 -41 -46.5c-32.667 38.667 -74 58 -124 58c-63.333 0 -108.166 -14.667 -134.499 -44s-39.5 -80.666 -39.5 -153.999c0 -32 1.16699 -58.167 3.5 -78.5s6.16602 -37.166 11.499 -50.499
s12.333 -24.666 21 -33.999s20.667 -19.333 36 -30c-18 -10 -33.833 -22.833 -47.5 -38.5s-20.5 -31.834 -20.5 -48.501s4.5 -30.5 13.5 -41.5s21.5 -19.833 37.5 -26.5v-2c-20 -4.66699 -37.167 -14.834 -51.5 -30.501s-21.5 -33.5 -21.5 -53.5
c0 -28 15.5 -49.333 46.5 -64s74.833 -22 131.5 -22c74.667 0 131.667 10.167 171 30.5s59 52.833 59 97.5c0 28 -5.66699 50.333 -17 67s-26.333 29 -45 37s-38 13 -58 15s-44.667 3.66699 -74 5c-32.667 1.33301 -56.5 3.66602 -71.5 6.99902s-22.5 11.333 -22.5 24
c0 13.333 7.33301 21.666 22 24.999h36c59.333 0 102.5 16.167 129.5 48.5s40.5 88.166 40.5 167.499c0 12 -1 25.833 -3 41.5s-5 30.167 -9 43.5c14 11.333 32 17 54 17c8 0 14 -0.333008 18 -1v93zM231 -89.998c-36.667 0 -61.667 3 -75 9s-20 16.333 -20 31
s6.66699 25 20 31s38.333 9 75 9s61.667 -3 75 -9s20 -16.333 20 -31s-6.66699 -25 -20 -31s-38.333 -9 -75 -9zM198 230.002c-19.333 0 -33.5 8 -42.5 24s-13.5 45.667 -13.5 89s4.5 73 13.5 89s23.167 24 42.5 24c22 0 36.833 -7.5 44.5 -22.5s11.5 -45.167 11.5 -90.5
s-3.83301 -75.5 -11.5 -90.5s-22.5 -22.5 -44.5 -22.5z" />
    <glyph glyph-name="h" unicode="h" 
d="M166 0l-0.000976562 422c16 11.333 29.333 19.833 40 25.5s21.334 8.5 32.001 8.5c26.667 0 40 -13 40 -39v-417h112v435c0 35.333 -8.33301 63 -25 83s-39.667 30 -69 30c-28 0 -49.833 -4 -65.5 -12s-35.167 -22.333 -58.5 -43c-1.33301 -1.33301 -3.33301 -3 -6 -5
v234h-112v-722h112z" />
    <glyph glyph-name="i" unicode="i" horiz-adv-x="222" 
d="M167 0v538h-112v-538h112zM167 620v102h-112v-102h112z" />
    <glyph glyph-name="j" unicode="j" horiz-adv-x="222" 
d="M0 -170l43.001 0.000976562c38.667 0 70 10.667 94 32s36 57 36 107v568h-112v-563c0 -12.667 -3.33301 -22.834 -10 -30.501s-17.334 -11.5 -32.001 -11.5h-19v-102zM173.001 620.001v102h-112v-102h112z" />
    <glyph glyph-name="k" unicode="k" 
d="M411 538h-120l-123 -190h-2v374h-112v-722h112v188l53 79h2l90 -267h113l-130 368z" />
    <glyph glyph-name="l" unicode="l" horiz-adv-x="222" 
d="M167 0v722h-112v-722h112z" />
    <glyph glyph-name="m" unicode="m" horiz-adv-x="667" 
d="M389 0l0.000976562 422.002c14.667 11.333 27.5 19.833 38.5 25.5s21.833 8.5 32.5 8.5c12 0 21.667 -3.33301 29 -10s11 -16.334 11 -29.001v-417h112v435c0 36 -8.83301 63.833 -26.5 83.5s-43.834 29.5 -78.501 29.5c-21.333 0 -41 -4.33301 -59 -13
s-40 -25.667 -66 -51c-13.333 24 -26.333 40.667 -39 50s-32.334 14 -59.001 14c-22.667 0 -41.167 -4 -55.5 -12s-33.833 -22.667 -58.5 -44c-2 -1.33301 -5.33301 -4 -10 -8v54h-106v-538h112v422c16 11.333 29.333 19.833 40 25.5s21.334 8.5 32.001 8.5
c12 0 21.5 -3.33301 28.5 -10s10.5 -16.334 10.5 -29.001v-417h112z" />
    <glyph glyph-name="n" unicode="n" 
d="M166 0l-0.000976562 421.999c16 11.333 29.333 19.833 40 25.5s21.334 8.5 32.001 8.5c26.667 0 40 -13 40 -39v-417h112v435c0 35.333 -8.33301 63 -25 83s-39.667 30 -69 30c-28 0 -50.167 -4.16699 -66.5 -12.5s-36.833 -23.166 -61.5 -44.499l-8 -7v54h-106v-538h112
z" />
    <glyph glyph-name="o" unicode="o" 
d="M284 170c0 -30.667 -5.16699 -53 -15.5 -67s-25.833 -21 -46.5 -21s-36.167 7 -46.5 21s-15.5 36.333 -15.5 67v198c0 30.667 5.16699 53 15.5 67s25.833 21 46.5 21s36.167 -7 46.5 -21s15.5 -36.333 15.5 -67v-198zM48 190c0 -62.667 13.833 -111.667 41.5 -147
s71.834 -53 132.501 -53s104.834 17.667 132.501 53s41.5 84.333 41.5 147v158c0 62.667 -13.833 111.667 -41.5 147s-71.834 53 -132.501 53s-104.834 -17.667 -132.501 -53s-41.5 -84.333 -41.5 -147v-158z" />
    <glyph glyph-name="p" unicode="p" 
d="M54 538v-708.001h112v216l4 -3c24.667 -20 44 -33.833 58 -41.5s32 -11.5 54 -11.5c35.333 0 63.166 12.833 83.499 38.5s30.5 62.834 30.5 111.501v258c0 48.667 -10.167 85.834 -30.5 111.501s-48.166 38.5 -83.499 38.5c-26.667 0 -48.5 -4.83301 -65.5 -14.5
s-35.167 -26.834 -54.5 -51.501h-2v56h-106zM166 427.999c26 18.667 47.333 28.002 64 28.002s29.834 -6.33301 39.501 -19s14.5 -35.334 14.5 -68.001v-200c0 -32.667 -4.83301 -55.334 -14.5 -68.001s-22.834 -19 -39.501 -19s-38 9.33301 -64 28v318z" />
    <glyph glyph-name="q" unicode="q" 
d="M284 538v-55.999h-2c-19.333 24.667 -37.5 41.834 -54.5 51.501s-38.833 14.5 -65.5 14.5c-35.333 0 -63.166 -12.833 -83.499 -38.5s-30.5 -62.834 -30.5 -111.501v-258c0 -48.667 10.167 -85.834 30.5 -111.501s48.166 -38.5 83.499 -38.5
c22 0 40.167 3.83301 54.5 11.5s33.5 21.5 57.5 41.5l4 3v-216h112v708h-106zM278 110.001c-25.333 -18.667 -46.666 -28.002 -63.999 -28.002c-16.667 0 -29.834 6.33301 -39.501 19s-14.5 35.334 -14.5 68.001v200c0 32.667 4.83301 55.334 14.5 68.001
s22.834 19 39.501 19c17.333 0 38.666 -9.33301 63.999 -28v-318z" />
    <glyph glyph-name="r" unicode="r" horiz-adv-x="333" 
d="M166 0l-0.00195312 370c0 22.667 7.33301 40.334 22 53.001s32.334 19 53.001 19c12.667 0 23.667 -0.833008 33 -2.5s20 -3.83398 32 -6.50098l7 -2v117h-23c-26.667 0 -51.167 -6.33301 -73.5 -19s-40.166 -30.667 -53.499 -54h-2v63h-107v-538h112z" />
    <glyph glyph-name="s" unicode="s" horiz-adv-x="389" 
d="M353 405c-8.66699 43.333 -27.499 78.001 -56.499 104.001s-64.833 39 -107.5 39s-78.334 -13.5 -107.001 -40.5s-43 -61.5 -43 -103.5c0 -19.333 3.5 -37.333 10.5 -54s16.167 -31.5 27.5 -44.5s23.333 -24.667 36 -35s29 -22.833 49 -37.5
c30 -21.333 52 -39.333 66 -54s21 -31.334 21 -50.001c0 -14.667 -4.66699 -26.167 -14 -34.5s-21.333 -12.5 -36 -12.5c-23.333 0 -40.5 7.5 -51.5 22.5s-18.5 35.833 -22.5 62.5l-98 -27c8.66699 -48 27.334 -85 56.001 -111s67 -39 115 -39
c47.333 0 85.333 12.5 114 37.5s43 60.833 43 107.5c0 22 -3.66699 42.167 -11 60.5s-17.333 34.833 -30 49.5s-25.834 27.5 -39.501 38.5s-30.167 23.5 -49.5 37.5c-27.333 19.333 -47.5 35.5 -60.5 48.5s-19.5 27.5 -19.5 43.5c0 14 4.5 24.667 13.5 32s20.833 11 35.5 11
c34.667 0 56 -22.333 64 -67z" />
    <glyph glyph-name="t" unicode="t" horiz-adv-x="278" 
d="M72 446v-335c0 -40.667 11.167 -71 33.5 -91s54.833 -30 97.5 -30c13.333 0 24 0.5 32 1.5s16 2.5 24 4.5v96h-37c-25.333 0 -38 14.667 -38 44v310h75v92h-75v145h-112v-145h-62v-92h62z" />
    <glyph glyph-name="u" unicode="u" 
d="M278 538l0.000976562 -421.999c-16 -11.333 -29.333 -19.833 -40 -25.5s-21.334 -8.5 -32.001 -8.5c-26.667 0 -40 13 -40 39v417h-112v-435c0 -35.333 8.33301 -63 25 -83s39.667 -30 69 -30c28 0 50.167 4.16699 66.5 12.5s36.833 23.166 61.5 44.499l8 7v-54h106v538
h-112z" />
    <glyph glyph-name="v" unicode="v" horiz-adv-x="389" 
d="M195 178h-2l-69 360h-114l130 -538h109l130 538h-114z" />
    <glyph glyph-name="w" unicode="w" horiz-adv-x="556" 
d="M165 202h-2l-49 336h-108l104 -538h90l73 340h2l61 -340h90l124 538h-108l-61 -336h-2l-60 335h-83z" />
    <glyph glyph-name="x" unicode="x" horiz-adv-x="389" 
d="M12 0h116l65 182h2l65 -182h116l-122 287l116 251h-116l-60 -150l-57 150h-116l111 -253z" />
    <glyph glyph-name="y" unicode="y" horiz-adv-x="389" 
d="M198 194h-1.99902l-72 344h-114l117 -457c8 -30 12 -53.667 12 -71c0 -30 -5.5 -52 -16.5 -66s-30.167 -21 -57.5 -21h-27v-92h47c43.333 0 76.666 9.5 99.999 28.5s41 52.5 53 100.5l141 578h-113z" />
    <glyph glyph-name="z" unicode="z" horiz-adv-x="389" 
d="M235 446l-205 -354v-92h329v92h-209l209 354v92h-315v-92h191z" />
    <glyph glyph-name="braceleft" unicode="{" horiz-adv-x="278" 
d="M0 296c16 0 29.3311 -6.66895 39.998 -20.002s16 -33.333 16 -60v-206c0 -33.333 7.66699 -57.666 23 -72.999s42.333 -23 81 -23h110v48h-82c-12.667 0 -21.834 4.33301 -27.501 13s-8.5 21 -8.5 37v194c0 20.667 -2.66699 38.334 -8 53.001s-12 26.5 -20 35.5
s-16.167 15.667 -24.5 20s-16.166 7.16602 -23.499 8.49902v3c6.66699 0.666992 14.334 3.33398 23.001 8.00098s17 11.5 25 20.5s14.667 20.667 20 35s8 31.166 8 50.499v194c0 16 2.83301 28.333 8.5 37s14.834 13 27.501 13h82v48h-110
c-38.667 0 -65.667 -7.66699 -81 -23s-23 -39.666 -23 -72.999v-202c0 -26.667 -5.33301 -46.667 -16 -60s-24 -20 -40 -20v-58z" />
    <glyph glyph-name="bar" unicode="|" horiz-adv-x="222" 
d="M62 -10h98v742h-98v-742z" />
    <glyph glyph-name="braceright" unicode="}" horiz-adv-x="278" 
d="M278 350c-16 0 -29.3311 6.66895 -39.998 20.002s-16 33.333 -16 60v206c0 33.333 -7.66699 57.666 -23 72.999s-42.333 23 -81 23h-110v-48h82c12.667 0 21.834 -4.33301 27.501 -13s8.5 -21 8.5 -37v-194c0 -20.667 2.66699 -38.334 8 -53.001s12 -26.5 20 -35.5
s16.167 -15.667 24.5 -20s16.166 -7.16602 23.499 -8.49902v-3c-6.66699 -0.666992 -14.334 -3.33398 -23.001 -8.00098s-17 -11.5 -25 -20.5s-14.667 -20.667 -20 -35s-8 -31.166 -8 -50.499v-194c0 -16 -2.83301 -28.333 -8.5 -37s-14.834 -13 -27.501 -13h-82v-48h110
c38.667 0 65.667 7.66699 81 23s23 39.666 23 72.999v202c0 26.667 5.33301 46.667 16 60s24 20 40 20v58z" />
    <glyph glyph-name="asciitilde" unicode="~" horiz-adv-x="600" 
d="M495 335c-15.333 -20.667 -29.334 -36.498 -42.001 -47.498s-28 -16.5 -46 -16.5c-13.333 0 -26.166 2 -38.499 6s-28.166 10.333 -47.499 19c-7.33301 3.33301 -12.666 5.66602 -15.999 6.99902c-22.667 10 -43 17.833 -61 23.5s-34.667 8.5 -50 8.5
c-28 0 -51.333 -6.5 -70 -19.5s-38.334 -31.167 -59.001 -54.5l-4 -4l44 -86c10 19.333 21.5 34.833 34.5 46.5s29.5 17.5 49.5 17.5c21.333 0 41.833 -2.83301 61.5 -8.5s37.5 -13.167 53.5 -22.5c19.333 -10.667 37 -18.834 53 -24.501s32.333 -8.5 49 -8.5
c22.667 0 42.167 5 58.5 15s34.833 25 55.5 45c9.33301 9.33301 15.666 15.333 18.999 18z" />
    <glyph glyph-name="exclamdown" unicode="&#xa1;" horiz-adv-x="278" 
d="M180 326h-82l-22 -510h126zM80 538v-118h118v118h-118z" />
    <glyph glyph-name="cent" unicode="&#xa2;" 
d="M158 148h-1.99805c-0.666992 2 -1.33398 4.33301 -2.00098 7c-2.66699 10.667 -4 19 -4 25v198c0 30 6.66699 52.167 20 66.5s31 21.5 53 21.5c7.33301 0 12.666 -0.333008 15.999 -1zM401.002 364c-0.666992 40 -7.16699 74.5 -19.5 103.5s-31.833 51.167 -58.5 66.5
l41 150h-74l-35 -128c-13.333 1.33301 -24 2 -32 2c-64 0 -110.833 -17.667 -140.5 -53s-44.5 -84.333 -44.5 -147v-158c0 -40 6 -74.5 18 -103.5s30.667 -51.5 56 -67.5l-40 -145h75l33 120c11.333 -2.66699 25.666 -4 42.999 -4c64.667 0 111.334 17.667 140.001 53
s43 84.333 43 147v14h-112v-34c0 -30 -6.33301 -52.167 -19 -66.5s-30 -21.5 -52 -21.5c-13.333 0 -24 2.66699 -32 8l91 337c10 -14 15 -33.667 15 -59v-14h104z" />
    <glyph glyph-name="sterling" unicode="&#xa3;" 
d="M35 -10c18.667 2 36.499 7.00391 53.499 15.0039s35.833 19 56.5 33c18.667 -14.667 38.667 -26.334 60 -35.001s44 -13 68 -13c42.667 0 75.5 13.167 98.5 39.5s34.5 63.166 34.5 110.499v59h-100c0 -33.333 -3.5 -59.5 -10.5 -78.5s-20.5 -28.5 -40.5 -28.5
c-24 0 -47.333 8 -70 24c14 24.667 23 51.334 27 80.001s6.66699 69.667 8 123h90v84h-99l-12 61c-6 25.333 -10.333 46.166 -13 62.499s-4 32.833 -4 49.5c0 42.667 16.667 64 50 64c21.333 0 36.5 -7.5 45.5 -22.5s14.5 -44.167 16.5 -87.5h102
c0 68.667 -13.167 119.5 -39.5 152.5s-66.833 49.5 -121.5 49.5c-55.333 0 -96.666 -14.333 -123.999 -43s-41 -69.334 -41 -122.001c0 -18 2.33301 -39.833 7 -65.5s11.667 -58.5 21 -98.5h-63v-84h77c0 -74.667 -5.16699 -127.834 -15.5 -159.501
s-30.833 -52.5 -61.5 -62.5v-107z" />
    <glyph glyph-name="currency" unicode="&#xa4;" 
d="M436 199l-47 46.002c24.667 34.667 37 73.334 37 116.001c0 43.333 -12.333 82 -37 116l47 46l-50 53l-48 -48c-16.667 11.333 -35 20.166 -55 26.499s-40.333 9.5 -61 9.5c-43.333 0 -82.333 -12 -117 -36l-47 48l-50 -53l47 -46c-24.667 -34 -37 -72.667 -37 -116
c0 -42.667 12.333 -81.334 37 -116.001l-47 -46l50 -53l47 48c34.667 -24 73.667 -36 117 -36c20.667 0 41 3.16699 61 9.5s38.333 15.166 55 26.499l48 -48zM110 361.002c0 32.667 10.833 60.334 32.5 83.001s48.167 34 79.5 34s57.833 -11.333 79.5 -34
s32.5 -50.334 32.5 -83.001s-10.833 -60.334 -32.5 -83.001s-48.167 -34 -79.5 -34s-57.833 11.333 -79.5 34s-32.5 50.334 -32.5 83.001z" />
    <glyph glyph-name="yen" unicode="&#xa5;" 
d="M418 468h-87l91 254h-100l-97 -299h-2l-101 299h-100l91 -254h-87v-84h121l27 -80h-148v-84h148v-220h96v220h148v84h-148l27 80h121v84z" />
    <glyph glyph-name="brokenbar" unicode="&#xa6;" horiz-adv-x="222" 
d="M160 296h-98v-306h98v306zM160 732h-98v-306h98v306z" />
    <glyph glyph-name="section" unicode="&#xa7;" horiz-adv-x="500" 
d="M402 652c-16.667 23.333 -37.667 42.4971 -63 57.4971s-52.666 22.5 -81.999 22.5c-46.667 0 -82.334 -11.167 -107.001 -33.5s-37 -51.833 -37 -88.5c0 -44.667 16.667 -79.667 50 -105c-33.333 -3.33301 -60.166 -15 -80.499 -35s-30.5 -46.333 -30.5 -79
c0 -32 12.167 -63.5 36.5 -94.5s59.5 -68.167 105.5 -111.5c36 -33.333 62.333 -60.166 79 -80.499s25 -39.166 25 -56.499c0 -16.667 -5.16699 -29.167 -15.5 -37.5s-24.5 -12.5 -42.5 -12.5s-33.333 5.5 -46 16.5s-23.667 25.5 -33 43.5l-73 -57
c28.667 -27.333 55.667 -47.666 81 -60.999s55 -20 89 -20c38.667 0 70.334 12.5 95.001 37.5s37 57.167 37 96.5c0 23.333 -4 43 -12 59s-20.667 32.333 -38 49c33.333 1.33301 59.666 13 78.999 35s29 49.667 29 83s-12.167 65 -36.5 95s-59.5 65.333 -105.5 106
c-34.667 30 -60.167 54.5 -76.5 73.5s-24.5 36.833 -24.5 53.5c0 30.667 17.333 46 52 46c13.333 0 25.166 -4 35.499 -12s21.833 -19 34.5 -33l6 -7zM144 398.997c0 11.333 3.99805 21.166 11.998 29.499s18.667 12.5 32 12.5c10 0 24.167 -7 42.5 -21
s37.333 -31.667 57 -53s36 -41.166 49 -59.499s19.5 -30.833 19.5 -37.5c0 -12 -4.5 -22.333 -13.5 -31s-19.833 -13 -32.5 -13c-8.66699 0 -22.167 7.16699 -40.5 21.5s-37.166 32 -56.499 53s-35.666 40.833 -48.999 59.5s-20 31.667 -20 39z" />
    <glyph glyph-name="dieresis" unicode="&#xa8;" horiz-adv-x="222" 
d="M244 614v108h-108v-108h108zM-22 722v-108h108v108h-108z" />
    <glyph glyph-name="copyright" unicode="&#xa9;" horiz-adv-x="800" 
d="M400 -10c50 0 97.998 8.66602 143.998 25.999s86.833 42.5 122.5 75.5s63.5 72.5 83.5 118.5s30 96.333 30 151s-10.167 105 -30.5 151s-48.166 85.333 -83.499 118s-76 57.834 -122 75.501s-94 26.5 -144 26.5s-98 -8.66699 -144 -26s-86.667 -42.5 -122 -75.5
s-63.166 -72.5 -83.499 -118.5s-30.5 -96.333 -30.5 -151s10 -105 30 -151s47.833 -85.5 83.5 -118.5s76.5 -58.167 122.5 -75.5s94 -26 144 -26zM681.998 360.999c0 -42 -7.16797 -81 -21.501 -117s-34.5 -67.167 -60.5 -93.5s-56.167 -46.666 -90.5 -60.999
s-70.833 -21.5 -109.5 -21.5c-39.333 0 -76.166 7.16699 -110.499 21.5s-64.333 34.666 -90 60.999s-45.667 57.5 -60 93.5s-21.5 75 -21.5 117s7.16699 81 21.5 117s34.5 67.167 60.5 93.5s56 46.666 90 60.999s70.667 21.5 110 21.5c38.667 0 75.167 -7.16699 109.5 -21.5
s64.5 -34.666 90.5 -60.999s46.167 -57.5 60.5 -93.5s21.5 -75 21.5 -117zM513.997 298.999c-2.66699 -24.667 -12.999 -44.001 -30.999 -58.001s-41 -21 -69 -21c-34.667 0 -63 14 -85 42s-33 62.333 -33 103c0 42.667 10.167 76.834 30.5 102.501s48.833 38.5 85.5 38.5
c26.667 0 49.167 -6.5 67.5 -19.5s29.833 -31.833 34.5 -56.5h78c-7.33301 49.333 -27.333 87.333 -60 114s-72.667 40 -120 40c-64 0 -115 -20.667 -153 -62s-57 -94.333 -57 -159c0 -30.667 5 -59.5 15 -86.5s24.333 -50.5 43 -70.5s41.167 -35.667 67.5 -47
s55.166 -17 86.499 -17c45.333 0 84.833 14.167 118.5 42.5s54.5 66.5 62.5 114.5h-81z" />
    <glyph glyph-name="ordfeminine" unicode="&#xaa;" horiz-adv-x="266" 
d="M92 631c0.666992 13.333 3.83301 23.5 9.5 30.5s15.167 10.5 28.5 10.5c22.667 0 34 -12.333 34 -37v-19c-52 -19.333 -90 -40.166 -114 -62.499s-36 -50.5 -36 -84.5c0 -22 6.33301 -39.667 19 -53s31 -20 55 -20c17.333 0 32.5 2 45.5 6s26.167 11 39.5 21
c0 -2.66699 0.666992 -6 2 -10c1.33301 -4.66699 2 -8.33398 2 -11.001h70c-0.666992 4 -1 6.33301 -1 7c-2.66699 12.667 -4 21.667 -4 27v208c0 58.667 -35.333 88 -106 88c-36 0 -64.833 -8.83301 -86.5 -26.5s-33.5 -42.5 -35.5 -74.5h78zM163.999 486
c-4 -8.66699 -9.83203 -15.833 -17.499 -21.5s-16.167 -8.5 -25.5 -8.5c-19.333 0 -29 8.66699 -29 26c0 14.667 4.66699 27.5 14 38.5s28.666 23.833 57.999 38.5v-73z" />
    <glyph glyph-name="guillemotleft" unicode="&#xab;" horiz-adv-x="500" 
d="M160 269l117 154h-99l-115 -153l115 -155h96zM327 269l117 154h-99l-115 -153l115 -155h96z" />
    <glyph glyph-name="logicalnot" unicode="&#xac;" horiz-adv-x="600" 
d="M455 99h98v307h-506v-98h408v-209z" />
    <glyph glyph-name="minus" unicode="&#xad;" horiz-adv-x="600" 
d="M553 204v98h-506v-98h506z" />
    <glyph glyph-name="minus" unicode="&#x2212;" horiz-adv-x="600" 
d="M553 204v98h-506v-98h506z" />
    <glyph glyph-name="registered" unicode="&#xae;" horiz-adv-x="800" 
d="M334 331h52l93 -177h91l-100 181c30 2.66699 54.167 13 72.5 31s27.5 44.667 27.5 80c0 44 -13.333 75.5 -40 94.5s-67 28.5 -121 28.5h-157v-415h82v177zM334 505h66.999c30.667 0 52.5 -3.83301 65.5 -11.5s19.5 -21.167 19.5 -40.5c0 -20 -6.16699 -34.667 -18.5 -44
s-33.166 -14 -62.499 -14h-71v110zM399.999 -10c50 0 97.998 8.66602 143.998 25.999s86.833 42.5 122.5 75.5s63.5 72.5 83.5 118.5s30 96.333 30 151s-10.167 105 -30.5 151s-48.166 85.333 -83.499 118s-76 57.834 -122 75.501s-94 26.5 -144 26.5s-98 -8.66699 -144 -26
s-86.667 -42.5 -122 -75.5s-63.166 -72.5 -83.499 -118.5s-30.5 -96.333 -30.5 -151s10 -105 30 -151s47.833 -85.5 83.5 -118.5s76.5 -58.167 122.5 -75.5s94 -26 144 -26zM681.997 360.999c0 -42 -7.16797 -81 -21.501 -117s-34.5 -67.167 -60.5 -93.5
s-56.167 -46.666 -90.5 -60.999s-70.833 -21.5 -109.5 -21.5c-39.333 0 -76.166 7.16699 -110.499 21.5s-64.333 34.666 -90 60.999s-45.667 57.5 -60 93.5s-21.5 75 -21.5 117s7.16699 81 21.5 117s34.5 67.167 60.5 93.5s56 46.666 90 60.999s70.667 21.5 110 21.5
c38.667 0 75.167 -7.16699 109.5 -21.5s64.5 -34.666 90.5 -60.999s46.167 -57.5 60.5 -93.5s21.5 -75 21.5 -117z" />
    <glyph glyph-name="macron" unicode="&#xaf;" horiz-adv-x="222" 
d="M-36 637h294v64h-294v-64z" />
    <glyph glyph-name="degree" unicode="&#xb0;" horiz-adv-x="400" 
d="M200 502c-23.333 0 -42.833 8.33301 -58.5 25s-23.5 37.334 -23.5 62.001s7.83301 45.334 23.5 62.001s35.167 25 58.5 25s42.833 -8.33301 58.5 -25s23.5 -37.334 23.5 -62.001s-7.83301 -45.334 -23.5 -62.001s-35.167 -25 -58.5 -25zM200 446
c40.667 0 74.834 13.833 102.501 41.5s41.5 61.5 41.5 101.5s-13.833 73.833 -41.5 101.5s-61.834 41.5 -102.501 41.5s-74.834 -13.833 -102.501 -41.5s-41.5 -61.5 -41.5 -101.5s13.833 -73.833 41.5 -101.5s61.834 -41.5 102.501 -41.5z" />
    <glyph glyph-name="plusminus" unicode="&#xb1;" horiz-adv-x="600" 
d="M251 369h-204v-98h204v-137h98v137h204v98h-204v137h-98v-137zM47 0h506v98h-506v-98z" />
    <glyph glyph-name="twosuperior" unicode="&#xb2;" horiz-adv-x="266" 
d="M249 292l-0.000976562 79.999h-126c27.333 31.333 49.5 59.333 66.5 84s30 47.167 39 67.5s15.167 39.333 18.5 57s5 36.167 5 55.5c0 26.667 -10.167 49.334 -30.5 68.001s-46.5 28 -78.5 28c-37.333 0 -68.166 -10.833 -92.499 -32.5s-36.5 -48.5 -36.5 -80.5v-20h86
v19c0 9.33301 3 17.333 9 24s13.667 10 23 10c18.667 0 28 -9.33301 28 -28c0 -30.667 -11.5 -65.667 -34.5 -105s-60.167 -88 -111.5 -146v-81h235z" />
    <glyph glyph-name="threesuperior" unicode="&#xb3;" horiz-adv-x="266" 
d="M20 418l0.000976562 -24.999c0 -36 9.83301 -62.833 29.5 -80.5s46.834 -26.5 81.501 -26.5c43.333 0 75 10.5 95 31.5s30 53.167 30 96.5c0 30.667 -3.5 53.5 -10.5 68.5s-21.167 28.167 -42.5 39.5c18.667 10 31.167 22.5 37.5 37.5s9.5 35.5 9.5 61.5
c0 31.333 -9.83301 57.666 -29.5 78.999s-47.834 32 -84.501 32c-34.667 0 -62.167 -9.33301 -82.5 -28s-30.5 -43 -30.5 -73v-20h84v17c0 18.667 8.33301 28 25 28c17.333 0 26 -13.333 26 -40c0 -23.333 -4.16699 -38.833 -12.5 -46.5s-22.5 -11.5 -42.5 -11.5v-74
c21.333 0 36.166 -3.5 44.499 -10.5s12.5 -21.5 12.5 -43.5v-25c0 -26 -9 -39 -27 -39s-27 10.333 -27 31v21h-86z" />
    <glyph glyph-name="acute" unicode="&#xb4;" horiz-adv-x="222" 
d="M254 746h-135l-79 -144h83z" />
    <glyph glyph-name="mu" unicode="&#xb5;" 
d="M278 538l0.00195312 -422c-16 -11.333 -29.333 -19.833 -40 -25.5s-21.334 -8.5 -32.001 -8.5c-26.667 0 -40 13 -40 39v417h-112v-708h112v160c22 2 40.167 7.16699 54.5 15.5s33.166 22.5 56.499 42.5l7 6v-54h106v538h-112z" />
    <glyph glyph-name="paragraph" unicode="&#xb6;" horiz-adv-x="500" 
d="M195 -80h82.001v738h87v-738h82v738h56v64h-288c-66 0 -117.167 -15.167 -153.5 -45.5s-54.5 -77.833 -54.5 -142.5c0 -53.333 17.167 -97 51.5 -131s80.166 -51 137.499 -51v-432z" />
    <glyph glyph-name="periodcentered" unicode="&#xb7;" horiz-adv-x="222" 
d="M44 253c0 -19.333 6.33301 -35.333 19 -48s28.667 -19 48 -19c18.667 0 34.5 6.5 47.5 19.5s19.5 28.833 19.5 47.5s-6.5 34.5 -19.5 47.5s-28.833 19.5 -47.5 19.5s-34.5 -6.5 -47.5 -19.5s-19.5 -28.833 -19.5 -47.5z" />
    <glyph glyph-name="periodcentered" unicode="&#x2219;" horiz-adv-x="222" 
d="M44 253c0 -19.333 6.33301 -35.333 19 -48s28.667 -19 48 -19c18.667 0 34.5 6.5 47.5 19.5s19.5 28.833 19.5 47.5s-6.5 34.5 -19.5 47.5s-28.833 19.5 -47.5 19.5s-34.5 -6.5 -47.5 -19.5s-19.5 -28.833 -19.5 -47.5z" />
    <glyph glyph-name="cedilla" unicode="&#xb8;" horiz-adv-x="222" 
d="M-9 -213c12.667 -6 27.167 -11.334 43.5 -16.001s34.833 -7 55.5 -7c34 0 63.167 9.33301 87.5 28s36.5 43.334 36.5 74.001c0 23.333 -9 41.5 -27 54.5s-39.333 20.167 -64 21.5c-4.66699 0 -11.667 -0.666992 -21 -2l41 60h-48l-68 -92l22 -18c10.667 4 22.667 6 36 6
s24.5 -2.66699 33.5 -8s13.5 -14.333 13.5 -27c0 -11.333 -5.5 -21 -16.5 -29s-25.167 -12 -42.5 -12c-8.66699 0 -19.667 1.83301 -33 5.5s-24 7.5 -32 11.5z" />
    <glyph glyph-name="onesuperior" unicode="&#xb9;" horiz-adv-x="266" 
d="M94 292h96v440h-49c-29.333 -24 -62.333 -43 -99 -57v-48h52v-335z" />
    <glyph glyph-name="ordmasculine" unicode="&#xba;" horiz-adv-x="266" 
d="M164 509c0 -32.667 -10.333 -49 -31 -49s-31 16.333 -31 49v110c0 32.667 10.333 49 31 49s31 -16.333 31 -49v-110zM20 517c0 -38 9 -67.667 27 -89s46.667 -32 86 -32c40 0 68.833 10.667 86.5 32s26.5 51 26.5 89v95c0 38 -8.83301 67.5 -26.5 88.5
s-46.5 31.5 -86.5 31.5c-39.333 0 -68 -10.5 -86 -31.5s-27 -50.5 -27 -88.5v-95z" />
    <glyph glyph-name="guillemotright" unicode="&#xbb;" horiz-adv-x="500" 
d="M226 115h96l115 155l-115 153h-99l117 -154zM59 115h96l115 155l-115 153h-99l117 -154z" />
    <glyph glyph-name="onequarter" unicode="&#xbc;" horiz-adv-x="666" 
d="M448 176l62 133h2v-133h-64zM512 0h82v100h38v76h-38v257h-95l-129 -253v-80h142v-100zM165 -10l410 742h-91l-410 -742h91zM102 292h96v439h-49c-30.667 -23.333 -63.667 -42 -99 -56v-48h52v-335z" />
    <glyph glyph-name="onehalf" unicode="&#xbd;" horiz-adv-x="666" 
d="M157 -10l410 742h-91l-410 -742h91zM100 292h96v440h-49c-29.333 -24 -62.333 -43 -99 -57v-48h52v-335zM633 0l-0.000976562 79.999h-126c27.333 31.333 49.5 59.333 66.5 84s30 47.167 39 67.5s15.167 39.333 18.5 57s5 36.167 5 55.5
c0 26.667 -10.167 49.334 -30.5 68.001s-46.5 28 -78.5 28c-37.333 0 -68.166 -10.833 -92.499 -32.5s-36.5 -48.5 -36.5 -80.5v-20h86v19c0 9.33301 3 17.333 9 24s13.667 10 23 10c18.667 0 28 -9.33301 28 -28c0 -30.667 -11.5 -65.667 -34.5 -105
s-60.167 -88 -111.5 -146v-81h235z" />
    <glyph glyph-name="threequarters" unicode="&#xbe;" horiz-adv-x="666" 
d="M448 176l62 133h2v-133h-64zM512 0h82v100h38v76h-38v257h-95l-129 -253v-80h142v-100zM184 -10l410 742h-91l-410 -742h91zM30 418l0.000976562 -24.999c0 -36 9.83301 -62.833 29.5 -80.5s46.834 -26.5 81.501 -26.5c43.333 0 75 10.5 95 31.5s30 53.167 30 96.5
c0 30.667 -3.5 53.5 -10.5 68.5s-21.167 28.167 -42.5 39.5c18.667 10 31.167 22.5 37.5 37.5s9.5 35.5 9.5 61.5c0 31.333 -9.83301 57.666 -29.5 78.999s-47.834 32 -84.501 32c-34.667 0 -62.167 -9.33301 -82.5 -28s-30.5 -43 -30.5 -73v-20h84v17
c0 18.667 8.33301 28 25 28c17.333 0 26 -13.333 26 -40c0 -23.333 -4.16699 -38.833 -12.5 -46.5s-22.5 -11.5 -42.5 -11.5v-74c21.333 0 36.166 -3.5 44.499 -10.5s12.5 -21.5 12.5 -43.5v-25c0 -26 -9 -39 -27 -39s-27 10.333 -27 31v21h-86z" />
    <glyph glyph-name="questiondown" unicode="&#xbf;" horiz-adv-x="389" 
d="M156 326l-0.00390625 -54.001c0 -39.333 -5.33301 -71.833 -16 -97.5s-26 -52.167 -46 -79.5l-5 -8c-19.333 -26 -33.666 -49.333 -42.999 -70s-14 -46.334 -14 -77.001c0 -38 14.333 -69.833 43 -95.5s62.334 -38.5 101.001 -38.5c46.667 0 84.5 10.833 113.5 32.5
s51.5 54.834 67.5 99.501l-96 36c-5.33301 -21.333 -13.666 -39.333 -24.999 -54s-26.666 -22 -45.999 -22c-12 0 -22 4.33301 -30 13s-12 19.334 -12 32.001c0 14 3.5 29 10.5 45s17.167 36.333 30.5 61l11 20c16 30 28.667 58.5 38 85.5s14 56.167 14 87.5v84h-96z
M146.996 537.999v-118h118v118h-118z" />
    <glyph glyph-name="Agrave" unicode="&#xc0;" 
d="M210 760h83l-79 144h-135zM221 578h2l49 -310h-100zM154 160h136l22 -160h120l-133 722h-154l-133 -722h120z" />
    <glyph glyph-name="Aacute" unicode="&#xc1;" 
d="M365 904h-135l-79 -144h83zM221 578h2l49 -310h-100zM154 160h136l22 -160h120l-133 722h-154l-133 -722h120z" />
    <glyph glyph-name="Acircumflex" unicode="&#xc2;" 
d="M71 760h92l59 89l59 -89h92l-96 144h-110zM221 578h2l49 -310h-100zM154 160h136l22 -160h120l-133 722h-154l-133 -722h120z" />
    <glyph glyph-name="Atilde" unicode="&#xc3;" 
d="M329 891c-0.666992 -15.333 -4.16797 -26.501 -10.501 -33.501s-16.833 -10.5 -31.5 -10.5c-11.333 0 -28 5 -50 15c-4.66699 2.66699 -8 4.33398 -10 5.00098l-3 1c-26 12 -46.667 18 -62 18c-30.667 0 -53.834 -11 -69.501 -33s-26.834 -50.333 -33.501 -85h56
c0.666992 15.333 4.16699 26.5 10.5 33.5s16.833 10.5 31.5 10.5s34.667 -6.33301 60 -19c26.667 -13.333 48.334 -20 65.001 -20c30.667 0 53.834 11 69.501 33s26.834 50.333 33.501 85h-56zM220.999 577.999h2l49 -310h-100zM153.999 159.999h136l22 -160h120l-133 722
h-154l-133 -722h120z" />
    <glyph glyph-name="Adieresis" unicode="&#xc4;" 
d="M355 772v108h-108v-108h108zM89 880v-108h108v108h-108zM221 578h2l49 -310h-100zM154 160h136l22 -160h120l-133 722h-154l-133 -722h120z" />
    <glyph glyph-name="Aring" unicode="&#xc5;" 
d="M120 862c0 -28 10 -52 30 -72s44 -30 72 -30s52 10 72 30s30 44 30 72s-10 52 -30 72s-44 30 -72 30s-52 -10 -72 -30s-30 -44 -30 -72zM170 862c0 14.667 5 27 15 37s22.333 15 37 15s27 -5 37 -15s15 -22.333 15 -37s-5 -27 -15 -37s-22.333 -15 -37 -15s-27 5 -37 15
s-15 22.333 -15 37zM221 578h2l49 -310h-100zM154 160h136l22 -160h120l-133 722h-154l-133 -722h120z" />
    <glyph glyph-name="AE" unicode="&#xc6;" horiz-adv-x="722" 
d="M224 278l108 354h2v-354h-110zM12 0h126l52 170h144v-170h350v108h-226v212h164v108h-164v186h212v108h-425z" />
    <glyph glyph-name="Ccedilla" unicode="&#xc7;" horiz-adv-x="500" 
d="M130 -213c12.667 -6 27.167 -11.334 43.5 -16.001s34.833 -7 55.5 -7c34 0 63.167 9.33301 87.5 28s36.5 43.334 36.5 74.001c0 23.333 -9 41.5 -27 54.5s-39.333 20.167 -64 21.5c-4.66699 0 -11.667 -0.666992 -21 -2l41 60h-48l-68 -92l22 -18c10.667 4 22.667 6 36 6
s24.5 -2.66699 33.5 -8s13.5 -14.333 13.5 -27c0 -11.333 -5.5 -21 -16.5 -29s-25.167 -12 -42.5 -12c-8.66699 0 -19.667 1.83301 -33 5.5s-24 7.5 -32 11.5zM434 480.999l0.000976562 53.002c0 57.333 -15.833 104.666 -47.5 141.999s-77.167 56 -136.5 56
c-62 0 -109.167 -17.333 -141.5 -52s-48.5 -79 -48.5 -133v-372c0 -54 16.167 -98.333 48.5 -133s79.5 -52 141.5 -52c59.333 0 104.833 17.333 136.5 52s47.5 79 47.5 133v83h-124v-87c0 -24.667 -4.5 -43 -13.5 -55s-24.5 -18 -46.5 -18c-24 0 -41 6.33301 -51 19
s-15 33 -15 61v366c0 28 5 48.333 15 61s27 19 51 19c17.333 0 31.666 -7.33301 42.999 -22s17 -36.334 17 -65.001v-56h124z" />
    <glyph glyph-name="Egrave" unicode="&#xc8;" 
d="M222 760h83l-79 144h-135zM406 0v108h-222v212h160v108h-160v186h208v108h-332v-722h346z" />
    <glyph glyph-name="Eacute" unicode="&#xc9;" 
d="M377 904h-135l-79 -144h83zM406 0v108h-222v212h160v108h-160v186h208v108h-332v-722h346z" />
    <glyph glyph-name="Ecircumflex" unicode="&#xca;" 
d="M83 760h92l59 89l59 -89h92l-96 144h-110zM406 0v108h-222v212h160v108h-160v186h208v108h-332v-722h346z" />
    <glyph glyph-name="Edieresis" unicode="&#xcb;" 
d="M367 772v108h-108v-108h108zM101 880v-108h108v108h-108zM406 0v108h-222v212h160v108h-160v186h208v108h-332v-722h346z" />
    <glyph glyph-name="Igrave" unicode="&#xcc;" horiz-adv-x="278" 
d="M127 760h83l-79 144h-135zM201 0v722h-124v-722h124z" />
    <glyph glyph-name="Iacute" unicode="&#xcd;" horiz-adv-x="278" 
d="M282 904h-135l-79 -144h83zM201 0v722h-124v-722h124z" />
    <glyph glyph-name="Icircumflex" unicode="&#xce;" horiz-adv-x="278" 
d="M-12 760h92l59 89l59 -89h92l-96 144h-110zM201 0v722h-124v-722h124z" />
    <glyph glyph-name="Idieresis" unicode="&#xcf;" horiz-adv-x="278" 
d="M272 772v108h-108v-108h108zM6 880v-108h108v108h-108zM201 0v722h-124v-722h124z" />
    <glyph glyph-name="Eth" unicode="&#xd0;" horiz-adv-x="500" 
d="M20 320h40v-320h184c64.667 0 113.5 18 146.5 54s49.5 90.667 49.5 164v286c0 73.333 -16.5 128 -49.5 164s-81.833 54 -146.5 54h-184v-294h-40v-108zM258 428h-74v192h43c33.333 0 56.5 -7.33301 69.5 -22s19.5 -41 19.5 -79v-316c0 -38 -6.5 -64.333 -19.5 -79
s-36.167 -22 -69.5 -22h-43v218h74v108z" />
    <glyph glyph-name="Ntilde" unicode="&#xd1;" horiz-adv-x="500" 
d="M357 891c-0.666992 -15.333 -4.16797 -26.501 -10.501 -33.501s-16.833 -10.5 -31.5 -10.5c-11.333 0 -28 5 -50 15c-4.66699 2.66699 -8 4.33398 -10 5.00098l-3 1c-26 12 -46.667 18 -62 18c-30.667 0 -53.834 -11 -69.501 -33s-26.834 -50.333 -33.501 -85h56
c0.666992 15.333 4.16699 26.5 10.5 33.5s16.833 10.5 31.5 10.5s34.667 -6.33301 60 -19c26.667 -13.333 48.334 -20 65.001 -20c30.667 0 53.834 11 69.501 33s26.834 50.333 33.501 85h-56zM171.999 -0.000976562v451h2l158 -451h108v722h-112v-413h-2l-151 413h-115
v-722h112z" />
    <glyph glyph-name="Ograve" unicode="&#xd2;" horiz-adv-x="500" 
d="M238 760h83l-79 144h-135zM60 175c0 -54 16.167 -98.333 48.5 -133s79.5 -52 141.5 -52s109.167 17.333 141.5 52s48.5 79 48.5 133v372c0 54 -16.167 98.333 -48.5 133s-79.5 52 -141.5 52s-109.167 -17.333 -141.5 -52s-48.5 -79 -48.5 -133v-372zM184 544
c0 28 5 48.333 15 61s27 19 51 19c24.667 0 41.834 -6.33301 51.501 -19s14.5 -33 14.5 -61v-366c0 -28 -4.83301 -48.333 -14.5 -61s-26.834 -19 -51.501 -19c-24 0 -41 6.33301 -51 19s-15 33 -15 61v366z" />
    <glyph glyph-name="Oacute" unicode="&#xd3;" horiz-adv-x="500" 
d="M393 904h-135l-79 -144h83zM60 175c0 -54 16.167 -98.333 48.5 -133s79.5 -52 141.5 -52s109.167 17.333 141.5 52s48.5 79 48.5 133v372c0 54 -16.167 98.333 -48.5 133s-79.5 52 -141.5 52s-109.167 -17.333 -141.5 -52s-48.5 -79 -48.5 -133v-372zM184 544
c0 28 5 48.333 15 61s27 19 51 19c24.667 0 41.834 -6.33301 51.501 -19s14.5 -33 14.5 -61v-366c0 -28 -4.83301 -48.333 -14.5 -61s-26.834 -19 -51.501 -19c-24 0 -41 6.33301 -51 19s-15 33 -15 61v366z" />
    <glyph glyph-name="Ocircumflex" unicode="&#xd4;" horiz-adv-x="500" 
d="M99 760h92l59 89l59 -89h92l-96 144h-110zM60 175c0 -54 16.167 -98.333 48.5 -133s79.5 -52 141.5 -52s109.167 17.333 141.5 52s48.5 79 48.5 133v372c0 54 -16.167 98.333 -48.5 133s-79.5 52 -141.5 52s-109.167 -17.333 -141.5 -52s-48.5 -79 -48.5 -133v-372z
M184 544c0 28 5 48.333 15 61s27 19 51 19c24.667 0 41.834 -6.33301 51.501 -19s14.5 -33 14.5 -61v-366c0 -28 -4.83301 -48.333 -14.5 -61s-26.834 -19 -51.501 -19c-24 0 -41 6.33301 -51 19s-15 33 -15 61v366z" />
    <glyph glyph-name="Otilde" unicode="&#xd5;" horiz-adv-x="500" 
d="M357 891c-0.666992 -15.333 -4.16797 -26.501 -10.501 -33.501s-16.833 -10.5 -31.5 -10.5c-11.333 0 -28 5 -50 15c-4.66699 2.66699 -8 4.33398 -10 5.00098l-3 1c-26 12 -46.667 18 -62 18c-30.667 0 -53.834 -11 -69.501 -33s-26.834 -50.333 -33.501 -85h56
c0.666992 15.333 4.16699 26.5 10.5 33.5s16.833 10.5 31.5 10.5s34.667 -6.33301 60 -19c26.667 -13.333 48.334 -20 65.001 -20c30.667 0 53.834 11 69.501 33s26.834 50.333 33.501 85h-56zM59.999 174.999c0 -54 16.167 -98.333 48.5 -133s79.5 -52 141.5 -52
s109.167 17.333 141.5 52s48.5 79 48.5 133v372c0 54 -16.167 98.333 -48.5 133s-79.5 52 -141.5 52s-109.167 -17.333 -141.5 -52s-48.5 -79 -48.5 -133v-372zM183.999 543.999c0 28 5 48.333 15 61s27 19 51 19c24.667 0 41.834 -6.33301 51.501 -19s14.5 -33 14.5 -61
v-366c0 -28 -4.83301 -48.333 -14.5 -61s-26.834 -19 -51.501 -19c-24 0 -41 6.33301 -51 19s-15 33 -15 61v366z" />
    <glyph glyph-name="Odieresis" unicode="&#xd6;" horiz-adv-x="500" 
d="M383 772v108h-108v-108h108zM117 880v-108h108v108h-108zM60 175c0 -54 16.167 -98.333 48.5 -133s79.5 -52 141.5 -52s109.167 17.333 141.5 52s48.5 79 48.5 133v372c0 54 -16.167 98.333 -48.5 133s-79.5 52 -141.5 52s-109.167 -17.333 -141.5 -52
s-48.5 -79 -48.5 -133v-372zM184 544c0 28 5 48.333 15 61s27 19 51 19c24.667 0 41.834 -6.33301 51.501 -19s14.5 -33 14.5 -61v-366c0 -28 -4.83301 -48.333 -14.5 -61s-26.834 -19 -51.501 -19c-24 0 -41 6.33301 -51 19s-15 33 -15 61v366z" />
    <glyph glyph-name="multiply" unicode="&#xd7;" horiz-adv-x="600" 
d="M553 437l-69 69l-184 -184l-184 184l-69 -69l184 -184l-184 -183l69 -70l184 184l184 -184l69 70l-183 183z" />
    <glyph glyph-name="Oslash" unicode="&#xd8;" horiz-adv-x="500" 
d="M186 257h-2.00098v287c0 28 5 48.333 15 61s27 19 51 19c34.667 0 55.334 -14 62.001 -42zM313.999 424h2.00098v-246c0 -28 -4.83301 -48.333 -14.5 -61s-26.834 -19 -51.501 -19c-27.333 0 -45 7.66699 -53 23zM160 7c26 -11.333 56 -17 90 -17
c62 0 109.167 17.333 141.5 52s48.5 79 48.5 133v372c0 41.333 -9 76.333 -27 105l59 152h-81l-38 -96c-28 16 -62.333 24 -103 24c-62 0 -109.167 -17.333 -141.5 -52s-48.5 -79 -48.5 -133v-372c0 -48 12.333 -87.667 37 -119l-69 -176h82z" />
    <glyph glyph-name="Ugrave" unicode="&#xd9;" horiz-adv-x="500" 
d="M238 760h83l-79 144h-135zM60 182c0 -61.333 16.833 -108.666 50.5 -141.999s80.167 -50 139.5 -50s105.833 16.667 139.5 50s50.5 80.666 50.5 141.999v540h-124v-545c0 -52.667 -22 -79 -66 -79s-66 26.333 -66 79v545h-124v-540z" />
    <glyph glyph-name="Uacute" unicode="&#xda;" horiz-adv-x="500" 
d="M393 904h-135l-79 -144h83zM60 182c0 -61.333 16.833 -108.666 50.5 -141.999s80.167 -50 139.5 -50s105.833 16.667 139.5 50s50.5 80.666 50.5 141.999v540h-124v-545c0 -52.667 -22 -79 -66 -79s-66 26.333 -66 79v545h-124v-540z" />
    <glyph glyph-name="Ucircumflex" unicode="&#xdb;" horiz-adv-x="500" 
d="M99 760h92l59 89l59 -89h92l-96 144h-110zM60 182c0 -61.333 16.833 -108.666 50.5 -141.999s80.167 -50 139.5 -50s105.833 16.667 139.5 50s50.5 80.666 50.5 141.999v540h-124v-545c0 -52.667 -22 -79 -66 -79s-66 26.333 -66 79v545h-124v-540z" />
    <glyph glyph-name="Udieresis" unicode="&#xdc;" horiz-adv-x="500" 
d="M383 772v108h-108v-108h108zM117 880v-108h108v108h-108zM60 182c0 -61.333 16.833 -108.666 50.5 -141.999s80.167 -50 139.5 -50s105.833 16.667 139.5 50s50.5 80.666 50.5 141.999v540h-124v-545c0 -52.667 -22 -79 -66 -79s-66 26.333 -66 79v545h-124v-540z" />
    <glyph glyph-name="Yacute" unicode="&#xdd;" 
d="M365 904h-135l-79 -144h83zM284 300l150 422h-126l-83 -275h-2l-87 275h-126l150 -422v-300h124v300z" />
    <glyph glyph-name="Thorn" unicode="&#xde;" horiz-adv-x="500" 
d="M184 722h-124v-722h124v156h54c77.333 0 134 16.5 170 49.5s54 87.5 54 163.5s-18 130.5 -54 163.5s-92.667 49.5 -170 49.5h-54v140zM184 480l48 0.00195312c40.667 0 68.5 -7.83301 83.5 -23.5s22.5 -44.834 22.5 -87.501s-7.5 -71.834 -22.5 -87.501
s-42.833 -23.5 -83.5 -23.5h-48v222z" />
    <glyph glyph-name="germandbls" unicode="&#xdf;" 
d="M166 0v562c0 26 4.16699 44.833 12.5 56.5s21.833 17.5 40.5 17.5c34.667 0 52 -21.333 52 -64v-70c0 -26.667 -3 -44.5 -9 -53.5s-18.667 -15.167 -38 -18.5v-92c41.333 0 62 -26 62 -78v-101c0 -23.333 -2.83301 -40.333 -8.5 -51s-15.834 -16 -30.501 -16
c-10 0 -19 1 -27 3v-95h66c39.333 0 68.5 15 87.5 45s28.5 83 28.5 159c0 56.667 -7.33301 100.167 -22 130.5s-38 50.5 -70 60.5v2c25.333 3.33301 43.833 16.333 55.5 39s17.5 54.334 17.5 95.001c0 29.333 -2.66699 55.666 -8 78.999s-14.5 43.833 -27.5 61.5
s-30.5 31.5 -52.5 41.5s-49.333 15 -82 15c-51.333 0 -90.666 -15.833 -117.999 -47.5s-41 -78.5 -41 -140.5v-540h112z" />
    <glyph glyph-name="agrave" unicode="&#xe0;" 
d="M210 602h83l-79 144h-135zM154 380c1.33301 25.333 6.33203 44.333 14.999 57s25 19 49 19c36.667 0 55 -23 55 -69v-32c-83.333 -31.333 -144 -65.5 -182 -102.5s-57 -84.167 -57 -141.5c0 -36 9.83301 -65.167 29.5 -87.5s47.834 -33.5 84.501 -33.5
c26 0 48.667 4.16699 68 12.5s40.333 21.5 63 39.5c0.666992 -4.66699 1.66699 -11 3 -19c2 -10 3 -17.667 3 -23h107l-1 5c-4 24.667 -6 42 -6 52v345c0 48.667 -14 85.167 -42 109.5s-68.333 36.5 -121 36.5c-53.333 0 -96 -14.5 -128 -43.5s-49.333 -70.5 -52 -124.5h112
zM272.999 132c-10.667 -15.333 -22.167 -27.5 -34.5 -36.5s-25.833 -13.5 -40.5 -13.5c-34.667 0 -52 16.333 -52 49c0 24.667 8.83301 47.5 26.5 68.5s51.167 45.5 100.5 73.5v-141z" />
    <glyph glyph-name="aacute" unicode="&#xe1;" 
d="M365 746h-135l-79 -144h83zM154 380c1.33301 25.333 6.33203 44.333 14.999 57s25 19 49 19c36.667 0 55 -23 55 -69v-32c-83.333 -31.333 -144 -65.5 -182 -102.5s-57 -84.167 -57 -141.5c0 -36 9.83301 -65.167 29.5 -87.5s47.834 -33.5 84.501 -33.5
c26 0 48.667 4.16699 68 12.5s40.333 21.5 63 39.5c0.666992 -4.66699 1.66699 -11 3 -19c2 -10 3 -17.667 3 -23h107l-1 5c-4 24.667 -6 42 -6 52v345c0 48.667 -14 85.167 -42 109.5s-68.333 36.5 -121 36.5c-53.333 0 -96 -14.5 -128 -43.5s-49.333 -70.5 -52 -124.5h112
zM272.999 132c-10.667 -15.333 -22.167 -27.5 -34.5 -36.5s-25.833 -13.5 -40.5 -13.5c-34.667 0 -52 16.333 -52 49c0 24.667 8.83301 47.5 26.5 68.5s51.167 45.5 100.5 73.5v-141z" />
    <glyph glyph-name="acircumflex" unicode="&#xe2;" 
d="M71 602h92l59 89l59 -89h92l-96 144h-110zM154 380c1.33301 25.333 6.33203 44.333 14.999 57s25 19 49 19c36.667 0 55 -23 55 -69v-32c-83.333 -31.333 -144 -65.5 -182 -102.5s-57 -84.167 -57 -141.5c0 -36 9.83301 -65.167 29.5 -87.5s47.834 -33.5 84.501 -33.5
c26 0 48.667 4.16699 68 12.5s40.333 21.5 63 39.5c0.666992 -4.66699 1.66699 -11 3 -19c2 -10 3 -17.667 3 -23h107l-1 5c-4 24.667 -6 42 -6 52v345c0 48.667 -14 85.167 -42 109.5s-68.333 36.5 -121 36.5c-53.333 0 -96 -14.5 -128 -43.5s-49.333 -70.5 -52 -124.5h112
zM272.999 132c-10.667 -15.333 -22.167 -27.5 -34.5 -36.5s-25.833 -13.5 -40.5 -13.5c-34.667 0 -52 16.333 -52 49c0 24.667 8.83301 47.5 26.5 68.5s51.167 45.5 100.5 73.5v-141z" />
    <glyph glyph-name="atilde" unicode="&#xe3;" 
d="M329 733c-0.666992 -15.333 -4.16797 -26.501 -10.501 -33.501s-16.833 -10.5 -31.5 -10.5c-11.333 0 -28 5 -50 15c-4.66699 2.66699 -8 4.33398 -10 5.00098l-3 1c-26 12 -46.667 18 -62 18c-30.667 0 -53.834 -11 -69.501 -33s-26.834 -50.333 -33.501 -85h56
c0.666992 15.333 4.16699 26.5 10.5 33.5s16.833 10.5 31.5 10.5s34.667 -6.33301 60 -19c26.667 -13.333 48.334 -20 65.001 -20c30.667 0 53.834 11 69.501 33s26.834 50.333 33.501 85h-56zM153.999 379.999c1.33301 25.333 6.33203 44.333 14.999 57s25 19 49 19
c36.667 0 55 -23 55 -69v-32c-83.333 -31.333 -144 -65.5 -182 -102.5s-57 -84.167 -57 -141.5c0 -36 9.83301 -65.167 29.5 -87.5s47.834 -33.5 84.501 -33.5c26 0 48.667 4.16699 68 12.5s40.333 21.5 63 39.5c0.666992 -4.66699 1.66699 -11 3 -19c2 -10 3 -17.667 3 -23
h107l-1 5c-4 24.667 -6 42 -6 52v345c0 48.667 -14 85.167 -42 109.5s-68.333 36.5 -121 36.5c-53.333 0 -96 -14.5 -128 -43.5s-49.333 -70.5 -52 -124.5h112zM272.998 131.999c-10.667 -15.333 -22.167 -27.5 -34.5 -36.5s-25.833 -13.5 -40.5 -13.5
c-34.667 0 -52 16.333 -52 49c0 24.667 8.83301 47.5 26.5 68.5s51.167 45.5 100.5 73.5v-141z" />
    <glyph glyph-name="adieresis" unicode="&#xe4;" 
d="M355 614v108h-108v-108h108zM89 722v-108h108v108h-108zM154 380c1.33301 25.333 6.33203 44.333 14.999 57s25 19 49 19c36.667 0 55 -23 55 -69v-32c-83.333 -31.333 -144 -65.5 -182 -102.5s-57 -84.167 -57 -141.5c0 -36 9.83301 -65.167 29.5 -87.5
s47.834 -33.5 84.501 -33.5c26 0 48.667 4.16699 68 12.5s40.333 21.5 63 39.5c0.666992 -4.66699 1.66699 -11 3 -19c2 -10 3 -17.667 3 -23h107l-1 5c-4 24.667 -6 42 -6 52v345c0 48.667 -14 85.167 -42 109.5s-68.333 36.5 -121 36.5c-53.333 0 -96 -14.5 -128 -43.5
s-49.333 -70.5 -52 -124.5h112zM272.999 132c-10.667 -15.333 -22.167 -27.5 -34.5 -36.5s-25.833 -13.5 -40.5 -13.5c-34.667 0 -52 16.333 -52 49c0 24.667 8.83301 47.5 26.5 68.5s51.167 45.5 100.5 73.5v-141z" />
    <glyph glyph-name="aring" unicode="&#xe5;" 
d="M120 704c0 -28 10 -52 30 -72s44 -30 72 -30s52 10 72 30s30 44 30 72s-10 52 -30 72s-44 30 -72 30s-52 -10 -72 -30s-30 -44 -30 -72zM170 704c0 14.667 5 27 15 37s22.333 15 37 15s27 -5 37 -15s15 -22.333 15 -37s-5 -27 -15 -37s-22.333 -15 -37 -15s-27 5 -37 15
s-15 22.333 -15 37zM154 380c1.33301 25.333 6.33203 44.333 14.999 57s25 19 49 19c36.667 0 55 -23 55 -69v-32c-83.333 -31.333 -144 -65.5 -182 -102.5s-57 -84.167 -57 -141.5c0 -36 9.83301 -65.167 29.5 -87.5s47.834 -33.5 84.501 -33.5
c26 0 48.667 4.16699 68 12.5s40.333 21.5 63 39.5c0.666992 -4.66699 1.66699 -11 3 -19c2 -10 3 -17.667 3 -23h107l-1 5c-4 24.667 -6 42 -6 52v345c0 48.667 -14 85.167 -42 109.5s-68.333 36.5 -121 36.5c-53.333 0 -96 -14.5 -128 -43.5s-49.333 -70.5 -52 -124.5h112
zM272.999 132c-10.667 -15.333 -22.167 -27.5 -34.5 -36.5s-25.833 -13.5 -40.5 -13.5c-34.667 0 -52 16.333 -52 49c0 24.667 8.83301 47.5 26.5 68.5s51.167 45.5 100.5 73.5v-141z" />
    <glyph glyph-name="ae" unicode="&#xe6;" horiz-adv-x="667" 
d="M272 132c-10 -15.333 -21.168 -27.5 -33.501 -36.5s-25.833 -13.5 -40.5 -13.5c-34.667 0 -52 16.333 -52 49c0 24.667 8.83301 47.5 26.5 68.5s50.834 45.5 99.501 73.5v-141zM383.999 340v28c0 58.667 20.333 88 61 88c20.667 0 36.167 -7 46.5 -21
s15.5 -36.333 15.5 -67v-28h-123zM618.999 248l0.000976562 99.998c0 62.667 -13.333 111.667 -40 147s-68.334 53 -125.001 53c-53.333 0 -93 -16.667 -119 -50c-28 33.333 -71 50 -129 50c-46 0 -84.167 -14.667 -114.5 -44s-46.833 -70.666 -49.5 -123.999h112
c1.33301 25.333 6.33301 44.333 15 57s25 19 49 19c36 0 54 -23 54 -69v-32c-83.333 -31.333 -143.833 -65.5 -181.5 -102.5s-56.5 -84.167 -56.5 -141.5c0 -36.667 10.5 -66 31.5 -88s52.5 -33 94.5 -33c21.333 0 43.333 4.5 66 13.5s50.334 27.833 83.001 56.5
c13.333 -22 31.333 -39.167 54 -51.5s50 -18.5 82 -18.5c60 0 103.667 16.833 131 50.5s41.666 80.834 42.999 141.501h-112v-12c0 -30.667 -5.16699 -53 -15.5 -67s-25.833 -21 -46.5 -21c-40.667 0 -61 29.333 -61 88v78h235z" />
    <glyph glyph-name="ccedilla" unicode="&#xe7;" 
d="M102 -213c12.667 -6 27.167 -11.334 43.5 -16.001s34.833 -7 55.5 -7c34 0 63.167 9.33301 87.5 28s36.5 43.334 36.5 74.001c0 23.333 -9 41.5 -27 54.5s-39.333 20.167 -64 21.5c-4.66699 0 -11.667 -0.666992 -21 -2l41 60h-48l-68 -92l22 -18c10.667 4 22.667 6 36 6
s24.5 -2.66699 33.5 -8s13.5 -14.333 13.5 -27c0 -11.333 -5.5 -21 -16.5 -29s-25.167 -12 -42.5 -12c-8.66699 0 -19.667 1.83301 -33 5.5s-24 7.5 -32 11.5zM396 353.999c-1.33301 61.333 -15.668 109 -43.001 143s-71 51 -131 51
c-60.667 0 -104.834 -17.667 -132.501 -53s-41.5 -84.333 -41.5 -147v-158c0 -62.667 13.833 -111.667 41.5 -147s71.834 -53 132.501 -53s104.834 17.667 132.501 53s41.5 84.333 41.5 147v14h-112v-34c0 -30.667 -5.16699 -53 -15.5 -67s-25.833 -21 -46.5 -21
s-36.167 7 -46.5 21s-15.5 36.333 -15.5 67v198c0 30.667 5.16699 53 15.5 67s25.833 21 46.5 21s36.167 -7 46.5 -21s15.5 -36.333 15.5 -67v-14h112z" />
    <glyph glyph-name="egrave" unicode="&#xe8;" 
d="M210 602h83l-79 144h-135zM160 340v28c0 30.667 5.16699 53 15.5 67s25.833 21 46.5 21s36.167 -7 46.5 -21s15.5 -36.333 15.5 -67v-28h-124zM396 348c0 62.667 -13.8311 111.666 -41.498 146.999s-71.834 53 -132.501 53s-104.834 -17.667 -132.501 -53
s-41.5 -84.333 -41.5 -147v-158c0 -62.667 13.833 -111.667 41.5 -147s71.834 -53 132.501 -53c60 0 103.667 16.833 131 50.5s41.666 80.834 42.999 141.501h-112v-12c0 -30.667 -5.16699 -53 -15.5 -67s-25.833 -21 -46.5 -21s-36.167 7 -46.5 21s-15.5 36.333 -15.5 67
v78h236v100z" />
    <glyph glyph-name="eacute" unicode="&#xe9;" 
d="M365 746h-135l-79 -144h83zM160 340v28c0 30.667 5.16699 53 15.5 67s25.833 21 46.5 21s36.167 -7 46.5 -21s15.5 -36.333 15.5 -67v-28h-124zM396 348c0 62.667 -13.8311 111.666 -41.498 146.999s-71.834 53 -132.501 53s-104.834 -17.667 -132.501 -53
s-41.5 -84.333 -41.5 -147v-158c0 -62.667 13.833 -111.667 41.5 -147s71.834 -53 132.501 -53c60 0 103.667 16.833 131 50.5s41.666 80.834 42.999 141.501h-112v-12c0 -30.667 -5.16699 -53 -15.5 -67s-25.833 -21 -46.5 -21s-36.167 7 -46.5 21s-15.5 36.333 -15.5 67
v78h236v100z" />
    <glyph glyph-name="ecircumflex" unicode="&#xea;" 
d="M71 602h92l59 89l59 -89h92l-96 144h-110zM160 340v28c0 30.667 5.16699 53 15.5 67s25.833 21 46.5 21s36.167 -7 46.5 -21s15.5 -36.333 15.5 -67v-28h-124zM396 348c0 62.667 -13.8311 111.666 -41.498 146.999s-71.834 53 -132.501 53s-104.834 -17.667 -132.501 -53
s-41.5 -84.333 -41.5 -147v-158c0 -62.667 13.833 -111.667 41.5 -147s71.834 -53 132.501 -53c60 0 103.667 16.833 131 50.5s41.666 80.834 42.999 141.501h-112v-12c0 -30.667 -5.16699 -53 -15.5 -67s-25.833 -21 -46.5 -21s-36.167 7 -46.5 21s-15.5 36.333 -15.5 67
v78h236v100z" />
    <glyph glyph-name="edieresis" unicode="&#xeb;" 
d="M355 614v108h-108v-108h108zM89 722v-108h108v108h-108zM160 340v28c0 30.667 5.16699 53 15.5 67s25.833 21 46.5 21s36.167 -7 46.5 -21s15.5 -36.333 15.5 -67v-28h-124zM396 348c0 62.667 -13.8311 111.666 -41.498 146.999s-71.834 53 -132.501 53
s-104.834 -17.667 -132.501 -53s-41.5 -84.333 -41.5 -147v-158c0 -62.667 13.833 -111.667 41.5 -147s71.834 -53 132.501 -53c60 0 103.667 16.833 131 50.5s41.666 80.834 42.999 141.501h-112v-12c0 -30.667 -5.16699 -53 -15.5 -67s-25.833 -21 -46.5 -21
s-36.167 7 -46.5 21s-15.5 36.333 -15.5 67v78h236v100z" />
    <glyph glyph-name="igrave" unicode="&#xec;" horiz-adv-x="222" 
d="M99 602h83l-79 144h-135zM167 0v538h-112v-538h112z" />
    <glyph glyph-name="iacute" unicode="&#xed;" horiz-adv-x="222" 
d="M254 746h-135l-79 -144h83zM167 0v538h-112v-538h112z" />
    <glyph glyph-name="icircumflex" unicode="&#xee;" horiz-adv-x="222" 
d="M-40 602h92l59 89l59 -89h92l-96 144h-110zM167 0v538h-112v-538h112z" />
    <glyph glyph-name="idieresis" unicode="&#xef;" horiz-adv-x="222" 
d="M244 614v108h-108v-108h108zM-22 722v-108h108v108h-108zM167 0v538h-112v-538h112z" />
    <glyph glyph-name="eth" unicode="&#xf0;" 
d="M284 163c0 -28 -5.16699 -48.5 -15.5 -61.5s-25.833 -19.5 -46.5 -19.5s-36.167 6.5 -46.5 19.5s-15.5 33.5 -15.5 61.5v162c0 28 5.16699 48.5 15.5 61.5s25.833 19.5 46.5 19.5s36.167 -6.5 46.5 -19.5s15.5 -33.5 15.5 -61.5v-162zM386 718l-108.999 -42
c-14.667 18.667 -30.334 34 -47.001 46l-86 -24c16 -14 31.667 -32.333 47 -55l-93 -35l27 -72l105 40c8 -14 14.5 -27.5 19.5 -40.5s8.16699 -26.167 9.5 -39.5l-7 1c-13.333 0.666992 -23.333 1 -30 1c-61.333 0 -105.666 -16.167 -132.999 -48.5s-41 -77.5 -41 -135.5
v-140c0 -58 13.667 -103.167 41 -135.5s71.666 -48.5 132.999 -48.5s105.666 16.167 132.999 48.5s41 77.5 41 135.5v140c0 54.667 -6.66699 107.667 -20 159s-31.666 97.333 -54.999 138l95 37z" />
    <glyph glyph-name="ntilde" unicode="&#xf1;" 
d="M329 733c-0.666992 -15.333 -4.16797 -26.501 -10.501 -33.501s-16.833 -10.5 -31.5 -10.5c-11.333 0 -28 5 -50 15c-4.66699 2.66699 -8 4.33398 -10 5.00098l-3 1c-26 12 -46.667 18 -62 18c-30.667 0 -53.834 -11 -69.501 -33s-26.834 -50.333 -33.501 -85h56
c0.666992 15.333 4.16699 26.5 10.5 33.5s16.833 10.5 31.5 10.5s34.667 -6.33301 60 -19c26.667 -13.333 48.334 -20 65.001 -20c30.667 0 53.834 11 69.501 33s26.834 50.333 33.501 85h-56zM165.999 -0.000976562l-0.000976562 421.999c16 11.333 29.333 19.833 40 25.5
s21.334 8.5 32.001 8.5c26.667 0 40 -13 40 -39v-417h112v435c0 35.333 -8.33301 63 -25 83s-39.667 30 -69 30c-28 0 -50.167 -4.16699 -66.5 -12.5s-36.833 -23.166 -61.5 -44.499l-8 -7v54h-106v-538h112z" />
    <glyph glyph-name="ograve" unicode="&#xf2;" 
d="M210 602h83l-79 144h-135zM284 170c0 -30.667 -5.16699 -53 -15.5 -67s-25.833 -21 -46.5 -21s-36.167 7 -46.5 21s-15.5 36.333 -15.5 67v198c0 30.667 5.16699 53 15.5 67s25.833 21 46.5 21s36.167 -7 46.5 -21s15.5 -36.333 15.5 -67v-198zM48 190
c0 -62.667 13.833 -111.667 41.5 -147s71.834 -53 132.501 -53s104.834 17.667 132.501 53s41.5 84.333 41.5 147v158c0 62.667 -13.833 111.667 -41.5 147s-71.834 53 -132.501 53s-104.834 -17.667 -132.501 -53s-41.5 -84.333 -41.5 -147v-158z" />
    <glyph glyph-name="oacute" unicode="&#xf3;" 
d="M365 746h-135l-79 -144h83zM284 170c0 -30.667 -5.16699 -53 -15.5 -67s-25.833 -21 -46.5 -21s-36.167 7 -46.5 21s-15.5 36.333 -15.5 67v198c0 30.667 5.16699 53 15.5 67s25.833 21 46.5 21s36.167 -7 46.5 -21s15.5 -36.333 15.5 -67v-198zM48 190
c0 -62.667 13.833 -111.667 41.5 -147s71.834 -53 132.501 -53s104.834 17.667 132.501 53s41.5 84.333 41.5 147v158c0 62.667 -13.833 111.667 -41.5 147s-71.834 53 -132.501 53s-104.834 -17.667 -132.501 -53s-41.5 -84.333 -41.5 -147v-158z" />
    <glyph glyph-name="ocircumflex" unicode="&#xf4;" 
d="M71 602h92l59 89l59 -89h92l-96 144h-110zM284 170c0 -30.667 -5.16699 -53 -15.5 -67s-25.833 -21 -46.5 -21s-36.167 7 -46.5 21s-15.5 36.333 -15.5 67v198c0 30.667 5.16699 53 15.5 67s25.833 21 46.5 21s36.167 -7 46.5 -21s15.5 -36.333 15.5 -67v-198zM48 190
c0 -62.667 13.833 -111.667 41.5 -147s71.834 -53 132.501 -53s104.834 17.667 132.501 53s41.5 84.333 41.5 147v158c0 62.667 -13.833 111.667 -41.5 147s-71.834 53 -132.501 53s-104.834 -17.667 -132.501 -53s-41.5 -84.333 -41.5 -147v-158z" />
    <glyph glyph-name="otilde" unicode="&#xf5;" 
d="M329 733c-0.666992 -15.333 -4.16797 -26.501 -10.501 -33.501s-16.833 -10.5 -31.5 -10.5c-11.333 0 -28 5 -50 15c-4.66699 2.66699 -8 4.33398 -10 5.00098l-3 1c-26 12 -46.667 18 -62 18c-30.667 0 -53.834 -11 -69.501 -33s-26.834 -50.333 -33.501 -85h56
c0.666992 15.333 4.16699 26.5 10.5 33.5s16.833 10.5 31.5 10.5s34.667 -6.33301 60 -19c26.667 -13.333 48.334 -20 65.001 -20c30.667 0 53.834 11 69.501 33s26.834 50.333 33.501 85h-56zM283.999 169.999c0 -30.667 -5.16699 -53 -15.5 -67s-25.833 -21 -46.5 -21
s-36.167 7 -46.5 21s-15.5 36.333 -15.5 67v198c0 30.667 5.16699 53 15.5 67s25.833 21 46.5 21s36.167 -7 46.5 -21s15.5 -36.333 15.5 -67v-198zM47.999 189.999c0 -62.667 13.833 -111.667 41.5 -147s71.834 -53 132.501 -53s104.834 17.667 132.501 53
s41.5 84.333 41.5 147v158c0 62.667 -13.833 111.667 -41.5 147s-71.834 53 -132.501 53s-104.834 -17.667 -132.501 -53s-41.5 -84.333 -41.5 -147v-158z" />
    <glyph glyph-name="odieresis" unicode="&#xf6;" 
d="M355 614v108h-108v-108h108zM89 722v-108h108v108h-108zM284 170c0 -30.667 -5.16699 -53 -15.5 -67s-25.833 -21 -46.5 -21s-36.167 7 -46.5 21s-15.5 36.333 -15.5 67v198c0 30.667 5.16699 53 15.5 67s25.833 21 46.5 21s36.167 -7 46.5 -21s15.5 -36.333 15.5 -67
v-198zM48 190c0 -62.667 13.833 -111.667 41.5 -147s71.834 -53 132.501 -53s104.834 17.667 132.501 53s41.5 84.333 41.5 147v158c0 62.667 -13.833 111.667 -41.5 147s-71.834 53 -132.501 53s-104.834 -17.667 -132.501 -53s-41.5 -84.333 -41.5 -147v-158z" />
    <glyph glyph-name="divide" unicode="&#xf7;" horiz-adv-x="600" 
d="M553 204v98h-506v-98h506zM220 460c0 -22 7.83301 -40.833 23.5 -56.5s34.5 -23.5 56.5 -23.5s40.833 7.83301 56.5 23.5s23.5 34.5 23.5 56.5s-7.83301 40.833 -23.5 56.5s-34.5 23.5 -56.5 23.5s-40.833 -7.83301 -56.5 -23.5s-23.5 -34.5 -23.5 -56.5zM220 46
c0 -22 7.83301 -40.833 23.5 -56.5s34.5 -23.5 56.5 -23.5s40.833 7.83301 56.5 23.5s23.5 34.5 23.5 56.5s-7.83301 40.833 -23.5 56.5s-34.5 23.5 -56.5 23.5s-40.833 -7.83301 -56.5 -23.5s-23.5 -34.5 -23.5 -56.5z" />
    <glyph glyph-name="oslash" unicode="&#xf8;" 
d="M282 353h2v-183c0 -30.667 -5.16699 -53 -15.5 -67s-25.833 -21 -46.5 -21c-14 0 -26.667 4 -38 12zM153 1c20 -7.33301 43.001 -11.001 69.001 -11.001c60.667 0 104.834 17.667 132.501 53s41.5 84.333 41.5 147v158c0 34 -3.83301 64 -11.5 90
s-19.834 47.667 -36.501 65l54 143h-68l-41 -109c-22 7.33301 -45.667 11 -71 11c-60.667 0 -104.834 -17.667 -132.501 -53s-41.5 -84.333 -41.5 -147v-158c0 -34.667 4.16699 -65.167 12.5 -91.5s21.5 -48.166 39.5 -65.499l-58 -153h66zM162.001 172.999h-1.99902v195
c0 30.667 5.16699 53 15.5 67s25.833 21 46.5 21c17.333 0 30.666 -4.66699 39.999 -14z" />
    <glyph glyph-name="ugrave" unicode="&#xf9;" 
d="M210 602h83l-79 144h-135zM278 538l0.000976562 -421.999c-16 -11.333 -29.333 -19.833 -40 -25.5s-21.334 -8.5 -32.001 -8.5c-26.667 0 -40 13 -40 39v417h-112v-435c0 -35.333 8.33301 -63 25 -83s39.667 -30 69 -30c28 0 50.167 4.16699 66.5 12.5
s36.833 23.166 61.5 44.499l8 7v-54h106v538h-112z" />
    <glyph glyph-name="uacute" unicode="&#xfa;" 
d="M365 746h-135l-79 -144h83zM278 538l0.000976562 -421.999c-16 -11.333 -29.333 -19.833 -40 -25.5s-21.334 -8.5 -32.001 -8.5c-26.667 0 -40 13 -40 39v417h-112v-435c0 -35.333 8.33301 -63 25 -83s39.667 -30 69 -30c28 0 50.167 4.16699 66.5 12.5
s36.833 23.166 61.5 44.499l8 7v-54h106v538h-112z" />
    <glyph glyph-name="ucircumflex" unicode="&#xfb;" 
d="M71 602h92l59 89l59 -89h92l-96 144h-110zM278 538l0.000976562 -421.999c-16 -11.333 -29.333 -19.833 -40 -25.5s-21.334 -8.5 -32.001 -8.5c-26.667 0 -40 13 -40 39v417h-112v-435c0 -35.333 8.33301 -63 25 -83s39.667 -30 69 -30c28 0 50.167 4.16699 66.5 12.5
s36.833 23.166 61.5 44.499l8 7v-54h106v538h-112z" />
    <glyph glyph-name="udieresis" unicode="&#xfc;" 
d="M355 614v108h-108v-108h108zM89 722v-108h108v108h-108zM278 538l0.000976562 -421.999c-16 -11.333 -29.333 -19.833 -40 -25.5s-21.334 -8.5 -32.001 -8.5c-26.667 0 -40 13 -40 39v417h-112v-435c0 -35.333 8.33301 -63 25 -83s39.667 -30 69 -30
c28 0 50.167 4.16699 66.5 12.5s36.833 23.166 61.5 44.499l8 7v-54h106v538h-112z" />
    <glyph glyph-name="yacute" unicode="&#xfd;" horiz-adv-x="389" 
d="M338 746h-135l-79 -144h83zM198 194h-1.99902l-72 344h-114l117 -457c8 -30 12 -53.667 12 -71c0 -30 -5.5 -52 -16.5 -66s-30.167 -21 -57.5 -21h-27v-92h47c43.333 0 76.666 9.5 99.999 28.5s41 52.5 53 100.5l141 578h-113z" />
    <glyph glyph-name="thorn" unicode="&#xfe;" 
d="M54 722l0.000976562 -892.002h112v216l4 -3c24.667 -20 44 -33.833 58 -41.5s32 -11.5 54 -11.5c35.333 0 63.166 12.833 83.499 38.5s30.5 62.834 30.5 111.501v258c0 48.667 -10.167 85.834 -30.5 111.501s-48.166 38.5 -83.499 38.5
c-26.667 0 -48.334 -4.66699 -65.001 -14s-33 -25 -49 -47h-2v235h-112zM166.001 427.998c26 18.667 47.333 28.002 64 28.002s29.834 -6.33301 39.501 -19s14.5 -35.334 14.5 -68.001v-200c0 -32.667 -4.83301 -55.334 -14.5 -68.001s-22.834 -19 -39.501 -19
s-38 9.33301 -64 28v318z" />
    <glyph glyph-name="ydieresis" unicode="&#xff;" horiz-adv-x="389" 
d="M328 614v108h-108v-108h108zM62 722v-108h108v108h-108zM198 194h-1.99902l-72 344h-114l117 -457c8 -30 12 -53.667 12 -71c0 -30 -5.5 -52 -16.5 -66s-30.167 -21 -57.5 -21h-27v-92h47c43.333 0 76.666 9.5 99.999 28.5s41 52.5 53 100.5l141 578h-113z" />
    <glyph glyph-name="OE" unicode="&#x152;" horiz-adv-x="722" 
d="M330 185c0 -26 -6 -45 -18 -57s-29 -18 -51 -18c-26 0 -45.333 8.5 -58 25.5s-19 40.167 -19 69.5v315c0 29.333 6.33301 52.5 19 69.5s32 25.5 58 25.5c22 0 39 -6 51 -18s18 -31 18 -57v-355zM684 0v108h-230v212h168v108h-168v186h216v108h-400
c-68.667 0 -120.834 -18.833 -156.501 -56.5s-53.5 -92.167 -53.5 -163.5v-282c0 -71.333 17.833 -125.833 53.5 -163.5s87.834 -56.5 156.501 -56.5h414z" />
    <glyph glyph-name="oe" unicode="&#x153;" horiz-adv-x="667" 
d="M278 170c0 -30 -5 -52.167 -15 -66.5s-23.667 -21.5 -41 -21.5c-20.667 0 -36.167 7 -46.5 21s-15.5 36.333 -15.5 67v198c0 30.667 5.16699 53 15.5 67s25.833 21 46.5 21c17.333 0 31 -7.16699 41 -21.5s15 -36.5 15 -66.5v-198zM390 340v28
c0 31.333 4.16699 53.833 12.5 67.5s22.5 20.5 42.5 20.5c20.667 0 36.167 -7 46.5 -21s15.5 -36.333 15.5 -67v-28h-117zM619 248l-0.000976562 100c0 62 -13.167 110.833 -39.5 146.5s-67.166 53.5 -122.499 53.5s-95 -20.333 -119 -61
c-10.667 20.667 -26.167 36 -46.5 46s-47.5 15 -81.5 15c-55.333 0 -96.166 -17.833 -122.499 -53.5s-39.5 -84.5 -39.5 -146.5v-158c0 -62 13.167 -110.833 39.5 -146.5s67.166 -53.5 122.499 -53.5c32.667 0 59.167 5.33301 79.5 16s35.833 26 46.5 46
c11.333 -20 27 -35.333 47 -46s44.667 -16 74 -16c54.667 0 95 17 121 51s39.667 81 41 141h-112v-12c0 -30.667 -5.16699 -53 -15.5 -67s-25.833 -21 -46.5 -21c-20 0 -34.167 6.83301 -42.5 20.5s-12.5 36.167 -12.5 67.5v78h229z" />
    <glyph glyph-name="Scaron" unicode="&#x160;" 
d="M373 904h-92l-59 -89l-59 89h-92l96 -144h110zM404 557c-5.33301 52.667 -23 95.001 -53 127.001s-69.667 48 -119 48c-60.667 0 -107.834 -15.667 -141.501 -47s-50.5 -75.666 -50.5 -132.999c0 -26.667 4 -51.334 12 -74.001s18.667 -42.834 32 -60.501
s27.333 -33.5 42 -47.5s33.667 -31 57 -51c37.333 -30.667 64.833 -56.834 82.5 -78.501s26.5 -47.167 26.5 -76.5c0 -21.333 -6.5 -37.666 -19.5 -48.999s-30.5 -17 -52.5 -17c-20.667 0 -37.5 9.33301 -50.5 28s-20.833 45.667 -23.5 81l-118 -17
c2.66699 -56.667 20.5 -104.167 53.5 -142.5s77.167 -57.5 132.5 -57.5c59.333 0 106.833 16.333 142.5 49s53.5 78 53.5 136c0 26 -4.16699 50.167 -12.5 72.5s-19.5 42.833 -33.5 61.5s-28.5 35.167 -43.5 49.5s-34.5 31.5 -58.5 51.5
c-35.333 30.667 -61.5 56.167 -78.5 76.5s-25.5 42.5 -25.5 66.5c0 47.333 20.667 71 62 71c16.667 0 31.334 -6.16699 44.001 -18.5s20 -32.833 22 -61.5z" />
    <glyph glyph-name="scaron" unicode="&#x161;" horiz-adv-x="389" 
d="M346 746h-92l-59 -89l-59 89h-92l96 -144h110zM353 405c-8.66699 43.333 -27.499 78.001 -56.499 104.001s-64.833 39 -107.5 39s-78.334 -13.5 -107.001 -40.5s-43 -61.5 -43 -103.5c0 -19.333 3.5 -37.333 10.5 -54s16.167 -31.5 27.5 -44.5s23.333 -24.667 36 -35
s29 -22.833 49 -37.5c30 -21.333 52 -39.333 66 -54s21 -31.334 21 -50.001c0 -14.667 -4.66699 -26.167 -14 -34.5s-21.333 -12.5 -36 -12.5c-23.333 0 -40.5 7.5 -51.5 22.5s-18.5 35.833 -22.5 62.5l-98 -27c8.66699 -48 27.334 -85 56.001 -111s67 -39 115 -39
c47.333 0 85.333 12.5 114 37.5s43 60.833 43 107.5c0 22 -3.66699 42.167 -11 60.5s-17.333 34.833 -30 49.5s-25.834 27.5 -39.501 38.5s-30.167 23.5 -49.5 37.5c-27.333 19.333 -47.5 35.5 -60.5 48.5s-19.5 27.5 -19.5 43.5c0 14 4.5 24.667 13.5 32s20.833 11 35.5 11
c34.667 0 56 -22.333 64 -67z" />
    <glyph glyph-name="Ydieresis" unicode="&#x178;" 
d="M355 772v108h-108v-108h108zM89 880v-108h108v108h-108zM284 300l150 422h-126l-83 -275h-2l-87 275h-126l150 -422v-300h124v300z" />
    <glyph glyph-name="florin" unicode="&#x192;" 
d="M34 -165c13.333 -3.33301 26.3359 -4.99902 39.0029 -4.99902c38.667 0 70.167 11.5 94.5 34.5s43.5 56.667 57.5 101s24.667 97.5 32 159.5s13.666 141 18.999 237h106v84h-102c2 74.667 9.66699 126.667 23 156s32 44 56 44c18.667 0 35.667 -4.33301 51 -13v94
c-2.66699 0 -7 0.666992 -13 2c-15.333 2 -26.666 3 -33.999 3c-26 0 -49.667 -5 -71 -15s-40.333 -26.333 -57 -49s-30.334 -52.334 -41.001 -89.001s-17.334 -81 -20.001 -133h-100v-84h93c-6.66699 -104.667 -12.5 -183.667 -17.5 -237s-10.833 -95 -17.5 -125
s-15.167 -50.5 -25.5 -61.5s-24.833 -16.5 -43.5 -16.5c-12.667 0 -22.334 1.66699 -29.001 5v-92z" />
    <glyph glyph-name="circumflex" unicode="&#x2c6;" horiz-adv-x="222" 
d="M-40 602h92l59 89l59 -89h92l-96 144h-110z" />
    <glyph glyph-name="tilde" unicode="&#x2dc;" horiz-adv-x="222" 
d="M218 733c-0.666992 -15.333 -4.16797 -26.501 -10.501 -33.501s-16.833 -10.5 -31.5 -10.5c-11.333 0 -28 5 -50 15c-4.66699 2.66699 -8 4.33398 -10 5.00098l-3 1c-26 12 -46.667 18 -62 18c-30.667 0 -53.834 -11 -69.501 -33s-26.834 -50.333 -33.501 -85h56
c0.666992 15.333 4.16699 26.5 10.5 33.5s16.833 10.5 31.5 10.5s34.667 -6.33301 60 -19c26.667 -13.333 48.334 -20 65.001 -20c30.667 0 53.834 11 69.501 33s26.834 50.333 33.501 85h-56z" />
    <glyph glyph-name="endash" unicode="&#x2013;" horiz-adv-x="500" 
d="M500 233v72h-500v-72h500z" />
    <glyph glyph-name="emdash" unicode="&#x2014;" horiz-adv-x="1000" 
d="M1000 233v72h-1000v-72h1000z" />
    <glyph glyph-name="quoteleft" unicode="&#x2018;" horiz-adv-x="222" 
d="M52 490h118v118h-45l49 124h-53l-69 -124v-118z" />
    <glyph glyph-name="quoteright" unicode="&#x2019;" horiz-adv-x="222" 
d="M170 722h-118v-118h45l-49 -124h53l69 124v118z" />
    <glyph glyph-name="quotesinglbase" unicode="&#x201a;" horiz-adv-x="222" 
d="M170 118h-118v-118h45l-49 -124h53l69 124v118z" />
    <glyph glyph-name="quotedblleft" unicode="&#x201c;" 
d="M70 490h118v118h-45l49 124h-53l-69 -124v-118zM255 490h118v118h-45l49 124h-53l-69 -124v-118z" />
    <glyph glyph-name="quotedblright" unicode="&#x201d;" 
d="M374 722h-118v-118h45l-49 -124h53l69 124v118zM189 722h-118v-118h45l-49 -124h53l69 124v118z" />
    <glyph glyph-name="quotedblbase" unicode="&#x201e;" 
d="M374 118h-118v-118h45l-49 -124h53l69 124v118zM189 118h-118v-118h45l-49 -124h53l69 124v118z" />
    <glyph glyph-name="dagger" unicode="&#x2020;" horiz-adv-x="500" 
d="M434 574l-163 -42l39 200h-120l39 -200l-163 42v-124l167 42l-45 -169c9.33301 -30.667 16.833 -76.334 22.5 -137.001s12.5 -149.334 20.5 -266.001h38c8 116.667 14.833 205.334 20.5 266.001s13.167 106.334 22.5 137.001l-45 169l167 -42v124z" />
    <glyph glyph-name="daggerdbl" unicode="&#x2021;" horiz-adv-x="500" 
d="M434 574l-163 -42l39 200h-120l39 -200l-163 42v-124l167 42l-45 -166l45 -166l-167 42v-124l163 42l-39 -200h120l-39 200l163 -42v124l-167 -42l45 166l-45 166l167 -42v124z" />
    <glyph glyph-name="bullet" unicode="&#x2022;" horiz-adv-x="500" 
d="M69 361c0 -24.667 4.66699 -48 14 -70s22.166 -41.333 38.499 -58s35.5 -29.667 57.5 -39s45.333 -14 70 -14s48 4.66699 70 14s41.333 22.333 58 39s29.667 36 39 58s14 45.333 14 70s-4.66699 48 -14 70s-22.333 41.167 -39 57.5s-36 29.166 -58 38.499
s-45.333 14 -70 14s-48 -4.66699 -70 -14s-41.167 -22.166 -57.5 -38.499s-29.166 -35.5 -38.499 -57.5s-14 -45.333 -14 -70z" />
    <glyph glyph-name="ellipsis" unicode="&#x2026;" horiz-adv-x="1000" 
d="M224 0v118h-114v-118h114zM557 0v118h-114v-118h114zM890 0v118h-114v-118h114z" />
    <glyph glyph-name="perthousand" unicode="&#x2030;" horiz-adv-x="1000" 
d="M14 572c0 -20 3.83301 -39.167 11.5 -57.5s18.5 -34.5 32.5 -48.5s30.167 -24.833 48.5 -32.5s37.5 -11.5 57.5 -11.5c20.667 0 40 3.83301 58 11.5s34 18.5 48 32.5s24.833 30.167 32.5 48.5s11.5 37.5 11.5 57.5c0 20.667 -3.83301 40 -11.5 58s-18.5 34 -32.5 48
s-30 24.833 -48 32.5s-37.333 11.5 -58 11.5c-20 0 -39.167 -3.83301 -57.5 -11.5s-34.5 -18.5 -48.5 -32.5s-24.833 -30 -32.5 -48s-11.5 -37.333 -11.5 -58zM94 572c0 19.333 6.83301 35.833 20.5 49.5s30.167 20.5 49.5 20.5s35.833 -6.83301 49.5 -20.5
s20.5 -30.167 20.5 -49.5s-6.83301 -35.833 -20.5 -49.5s-30.167 -20.5 -49.5 -20.5s-35.833 6.83301 -49.5 20.5s-20.5 30.167 -20.5 49.5zM332 150c0 -20 3.83301 -39.167 11.5 -57.5s18.5 -34.5 32.5 -48.5s30.167 -24.833 48.5 -32.5s37.5 -11.5 57.5 -11.5
c20.667 -0 40 3.83301 58 11.5s34 18.5 48 32.5s24.833 30.167 32.5 48.5s11.5 37.5 11.5 57.5c0 20.667 -3.83301 40 -11.5 58s-18.5 34 -32.5 48s-30 24.833 -48 32.5s-37.333 11.5 -58 11.5c-20 0 -39.167 -3.83301 -57.5 -11.5s-34.5 -18.5 -48.5 -32.5
s-24.833 -30 -32.5 -48s-11.5 -37.333 -11.5 -58zM412 150c0 19.333 6.83301 35.833 20.5 49.5s30.167 20.5 49.5 20.5s35.833 -6.83301 49.5 -20.5s20.5 -30.167 20.5 -49.5s-6.83301 -35.833 -20.5 -49.5s-30.167 -20.5 -49.5 -20.5s-35.833 6.83301 -49.5 20.5
s-20.5 30.167 -20.5 49.5zM686 150c0 -20 3.83301 -39.167 11.5 -57.5s18.5 -34.5 32.5 -48.5s30.167 -24.833 48.5 -32.5s37.5 -11.5 57.5 -11.5c20.667 -0 40 3.83301 58 11.5s34 18.5 48 32.5s24.833 30.167 32.5 48.5s11.5 37.5 11.5 57.5
c0 20.667 -3.83301 40 -11.5 58s-18.5 34 -32.5 48s-30 24.833 -48 32.5s-37.333 11.5 -58 11.5c-20 0 -39.167 -3.83301 -57.5 -11.5s-34.5 -18.5 -48.5 -32.5s-24.833 -30 -32.5 -48s-11.5 -37.333 -11.5 -58zM766 150c0 19.333 6.83301 35.833 20.5 49.5
s30.167 20.5 49.5 20.5s35.833 -6.83301 49.5 -20.5s20.5 -30.167 20.5 -49.5s-6.83301 -35.833 -20.5 -49.5s-30.167 -20.5 -49.5 -20.5s-35.833 6.83301 -49.5 20.5s-20.5 30.167 -20.5 49.5zM96 -10h70l411 742h-70z" />
    <glyph glyph-name="guilsinglleft" unicode="&#x2039;" horiz-adv-x="333" 
d="M160 269l117 154h-99l-115 -153l115 -155h96z" />
    <glyph glyph-name="guilsinglright" unicode="&#x203a;" horiz-adv-x="333" 
d="M59 115h96l115 155l-115 153h-99l117 -154z" />
    <glyph glyph-name="trademark" unicode="&#x2122;" horiz-adv-x="990" 
d="M559 722h-136v-412h92v302h2l110 -302h69l110 302h2v-302h92v412h-135l-103 -271zM370 722h-336v-75h120v-337h96v337h120v75z" />
    </font>
</defs>
</svg>
